<svg width="154" height="21" viewBox="0 0 154 21" fill="none" xmlns="http://www.w3.org/2000/svg">
<path d="M4.96969 20.4576H0.873234V1.10727H13.3782V4.66472H4.96969V9.54274H12.0576V13.0732H4.96969V20.4576ZM20.2063 2.72429C20.2063 3.99096 19.1822 4.93422 17.7 4.93422C16.2446 4.93422 15.2205 3.99096 15.2205 2.72429C15.2205 1.40373 16.2446 0.460462 17.7 0.460462C19.1822 0.460462 20.2063 1.40373 20.2063 2.72429ZM19.6134 20.4576H15.8673V6.06614H19.6134V20.4576ZM26.6932 12.6151V20.4576H22.9471V6.06614H26.3967V8.11437C27.4478 6.686 28.93 5.79664 30.8166 5.79664C33.7003 5.79664 35.6946 7.68316 35.6946 11.1598V20.4576H31.9754V12.4264C31.9754 10.2974 31.14 9.11153 29.4421 9.11153C27.9598 9.11153 26.6932 10.2974 26.6932 12.6151ZM47.4927 20.4576V18.6789C46.5495 20.0264 45.1211 20.7271 43.1537 20.7271C40.1622 20.7271 38.1679 18.9754 38.1679 16.2803C38.1679 13.4775 40.4318 11.9683 44.636 11.9683C45.4445 11.9683 46.1452 12.0222 47.0346 12.13V11.2676C47.0346 9.65054 46.1183 8.70728 44.5552 8.70728C42.9381 8.70728 41.9679 9.65054 41.8332 11.2676H38.4644C38.68 7.95267 41.0786 5.79664 44.5552 5.79664C48.3282 5.79664 50.5381 7.87182 50.5381 11.4023V20.4576H47.4927ZM41.6984 16.1725C41.6984 17.3853 42.5608 18.1399 43.9622 18.1399C45.8757 18.1399 47.0346 17.0888 47.0346 15.4179V14.3938C46.1452 14.2591 45.5254 14.2052 44.8786 14.2052C42.7495 14.2052 41.6984 14.8789 41.6984 16.1725ZM57.5124 12.6151V20.4576H53.7663V6.06614H57.2159V8.11437C58.267 6.686 59.7493 5.79664 61.6358 5.79664C64.5195 5.79664 66.5138 7.68316 66.5138 11.1598V20.4576H62.7947V12.4264C62.7947 10.2974 61.9592 9.11153 60.2613 9.11153C58.7791 9.11153 57.5124 10.2974 57.5124 12.6151ZM75.8056 20.7271C71.6552 20.7271 68.7985 17.6548 68.7985 13.2619C68.7985 8.94983 71.763 5.79664 75.8056 5.79664C79.5517 5.79664 82.3276 8.32997 82.7857 12.2108H78.851C78.6623 10.2974 77.5035 9.11153 75.8056 9.11153C73.8652 9.11153 72.6254 10.7016 72.6254 13.2619C72.6254 15.8491 73.8382 17.4122 75.8056 17.4122C77.5304 17.4122 78.6354 16.2803 78.851 14.313H82.7857C82.3545 18.2747 79.6595 20.7271 75.8056 20.7271ZM91.3907 20.7002C87.0786 20.7002 84.1949 17.7087 84.1949 13.208C84.1949 8.92288 87.1864 5.79664 91.3368 5.79664C95.8914 5.79664 98.9099 9.48884 98.2361 14.1782H88.0219C88.2645 16.5229 89.3964 17.8165 91.3098 17.8165C92.9538 17.8165 94.0588 17.008 94.49 15.5796H98.2091C97.4006 18.8406 94.8942 20.7002 91.3907 20.7002ZM91.2559 8.54558C89.5042 8.54558 88.3992 9.67749 88.0758 11.8066H94.2744C94.1666 9.81224 93.0347 8.54558 91.2559 8.54558Z" fill="white"/>
<path d="M108.21 14.1513H105.165V20.4576H101.069V1.10727H108.21C112.927 1.10727 115.864 3.34415 115.864 7.54841C115.864 11.7527 112.927 14.1513 108.21 14.1513ZM108.184 4.55692H105.165V10.7016H108.184C110.501 10.7016 111.795 9.48884 111.795 7.57536C111.795 5.66189 110.501 4.55692 108.184 4.55692ZM122.099 20.4576H118.326V1.10727H122.099V20.4576ZM134.029 20.4576V18.6789C133.085 20.0264 131.657 20.7271 129.69 20.7271C126.698 20.7271 124.704 18.9754 124.704 16.2803C124.704 13.4775 126.968 11.9683 131.172 11.9683C131.98 11.9683 132.681 12.0222 133.571 12.13V11.2676C133.571 9.65054 132.654 8.70728 131.091 8.70728C129.474 8.70728 128.504 9.65054 128.369 11.2676H125C125.216 7.95267 127.615 5.79664 131.091 5.79664C134.864 5.79664 137.074 7.87182 137.074 11.4023V20.4576H134.029ZM128.234 16.1725C128.234 17.3853 129.097 18.1399 130.498 18.1399C132.412 18.1399 133.571 17.0888 133.571 15.4179V14.3938C132.681 14.2591 132.061 14.2052 131.415 14.2052C129.285 14.2052 128.234 14.8789 128.234 16.1725ZM144.048 12.6151V20.4576H140.302V6.06614H143.752V8.11437C144.803 6.686 146.285 5.79664 148.172 5.79664C151.055 5.79664 153.05 7.68316 153.05 11.1598V20.4576H149.331V12.4264C149.331 10.2974 148.495 9.11153 146.797 9.11153C145.315 9.11153 144.048 10.2974 144.048 12.6151Z" fill="url(#paint0_linear_5_97885)"/>
<defs>
<linearGradient id="paint0_linear_5_97885" x1="154.201" y1="10.4577" x2="100.665" y2="10.4576" gradientUnits="userSpaceOnUse">
<stop stop-color="white"/>
<stop offset="1" stop-color="white"/>
</linearGradient>
</defs>
</svg>
