<svg width="157" height="22" viewBox="0 0 157 22" fill="none" xmlns="http://www.w3.org/2000/svg">
<path d="M4.68198 20.9561H0.490692V1.15772H13.2852V4.79752H4.68198V9.78847H11.934V13.4007H4.68198V20.9561ZM20.2714 2.81217C20.2714 4.10817 19.2235 5.07327 17.707 5.07327C16.2179 5.07327 15.1701 4.10817 15.1701 2.81217C15.1701 1.46104 16.2179 0.495935 17.707 0.495935C19.2235 0.495935 20.2714 1.46104 20.2714 2.81217ZM19.6647 20.9561H15.8319V6.23139H19.6647V20.9561ZM26.9084 12.9319V20.9561H23.0755V6.23139H26.605V8.32703C27.6804 6.86559 29.197 5.95564 31.1272 5.95564C34.0777 5.95564 36.1182 7.88584 36.1182 11.4429V20.9561H32.3129V12.7389C32.3129 10.5605 31.4581 9.34728 29.7209 9.34728C28.2044 9.34728 26.9084 10.5605 26.9084 12.9319ZM48.1895 20.9561V19.1362C47.2244 20.5149 45.7629 21.2318 43.75 21.2318C40.6893 21.2318 38.6488 19.4395 38.6488 16.682C38.6488 13.8143 40.965 12.2702 45.2666 12.2702C46.0938 12.2702 46.8107 12.3253 47.7207 12.4356V11.5532C47.7207 9.89877 46.7832 8.93367 45.1839 8.93367C43.5294 8.93367 42.5367 9.89877 42.3989 11.5532H38.9521C39.1727 8.16159 41.6268 5.95564 45.1839 5.95564C49.0443 5.95564 51.3054 8.07886 51.3054 11.6911V20.9561H48.1895ZM42.261 16.5717C42.261 17.8126 43.1434 18.5847 44.5772 18.5847C46.535 18.5847 47.7207 17.5093 47.7207 15.7997V14.7518C46.8107 14.614 46.1765 14.5588 45.5148 14.5588C43.3364 14.5588 42.261 15.2482 42.261 16.5717ZM58.4411 12.9319V20.9561H54.6082V6.23139H58.1378V8.32703C59.2131 6.86559 60.7297 5.95564 62.6599 5.95564C65.6104 5.95564 67.6509 7.88584 67.6509 11.4429V20.9561H63.8456V12.7389C63.8456 10.5605 62.9908 9.34728 61.2536 9.34728C59.7371 9.34728 58.4411 10.5605 58.4411 12.9319ZM77.1578 21.2318C72.9113 21.2318 69.9884 18.0883 69.9884 13.5937C69.9884 9.18184 73.0216 5.95564 77.1578 5.95564C80.9906 5.95564 83.8307 8.54763 84.2995 12.5183H80.2736C80.0806 10.5605 78.8949 9.34728 77.1578 9.34728C75.1724 9.34728 73.904 10.9742 73.904 13.5937C73.904 16.2409 75.1448 17.8402 77.1578 17.8402C78.9225 17.8402 80.0531 16.682 80.2736 14.6691H84.2995C83.8583 18.7225 81.1009 21.2318 77.1578 21.2318ZM93.1037 21.2042C88.6918 21.2042 85.7413 18.1435 85.7413 13.5386C85.7413 9.15426 88.8021 5.95564 93.0485 5.95564C97.7086 5.95564 100.797 9.73332 100.108 14.5312H89.6569C89.905 16.9302 91.0632 18.2538 93.0209 18.2538C94.703 18.2538 95.8335 17.4265 96.2747 15.9651H100.08C99.2527 19.3016 96.6883 21.2042 93.1037 21.2042ZM92.9658 8.76822C91.1735 8.76822 90.0429 9.92634 89.712 12.1047H96.0541C95.9438 10.0642 94.7857 8.76822 92.9658 8.76822Z" fill="#002332"/>
<path d="M110.313 14.5037H107.197V20.9561H103.006V1.15772H110.313C115.138 1.15772 118.144 3.44638 118.144 7.74797C118.144 12.0496 115.138 14.5037 110.313 14.5037ZM110.285 4.68723H107.197V10.9742H110.285C112.657 10.9742 113.98 9.73332 113.98 7.77555C113.98 5.81777 112.657 4.68723 110.285 4.68723ZM124.523 20.9561H120.663V1.15772H124.523V20.9561ZM136.729 20.9561V19.1362C135.764 20.5149 134.302 21.2318 132.289 21.2318C129.229 21.2318 127.188 19.4395 127.188 16.682C127.188 13.8143 129.504 12.2702 133.806 12.2702C134.633 12.2702 135.35 12.3253 136.26 12.4356V11.5532C136.26 9.89877 135.322 8.93367 133.723 8.93367C132.069 8.93367 131.076 9.89877 130.938 11.5532H127.491C127.712 8.16159 130.166 5.95564 133.723 5.95564C137.584 5.95564 139.845 8.07886 139.845 11.6911V20.9561H136.729ZM130.8 16.5717C130.8 17.8126 131.683 18.5847 133.117 18.5847C135.074 18.5847 136.26 17.5093 136.26 15.7997V14.7518C135.35 14.614 134.716 14.5588 134.054 14.5588C131.876 14.5588 130.8 15.2482 130.8 16.5717ZM146.98 12.9319V20.9561H143.148V6.23139H146.677V8.32703C147.752 6.86559 149.269 5.95564 151.199 5.95564C154.15 5.95564 156.19 7.88584 156.19 11.4429V20.9561H152.385V12.7389C152.385 10.5605 151.53 9.34728 149.793 9.34728C148.276 9.34728 146.98 10.5605 146.98 12.9319Z" fill="url(#paint0_linear_5_98252)"/>
<defs>
<linearGradient id="paint0_linear_5_98252" x1="157.368" y1="10.4561" x2="102.593" y2="10.4561" gradientUnits="userSpaceOnUse">
<stop stop-color="#002332"/>
<stop offset="1" stop-color="#0CAF60"/>
</linearGradient>
</defs>
</svg>
