<svg width="405" height="670" viewBox="0 0 405 670" fill="none" xmlns="http://www.w3.org/2000/svg">
<path d="M403.058 673.81L154.34 674.872C93.8293 627.403 87.6113 557.035 130.834 514.419C156.919 488.637 190.131 493.794 221.676 489.699C221.676 489.699 221.676 489.699 221.828 489.699C232.747 488.334 243.666 485.756 253.827 480.296C286.282 463.159 304.632 422.667 331.931 388.695C335.267 384.449 338.907 380.354 342.698 376.26C365.143 352.298 409.882 351.539 433.389 385.207C492.687 471.045 465.389 598.74 403.058 673.81Z" fill="#8C8C8B"/>
<path d="M408.518 477.567C401.996 579.632 284.159 617.698 210.605 587.215C146.606 560.675 167.535 500.012 221.525 489.851C221.525 489.851 221.525 489.851 221.676 489.851C232.596 488.486 243.515 485.908 253.676 480.448C286.13 463.311 304.481 422.819 331.779 388.848C372.575 367.616 413.371 402.952 408.518 477.567Z" fill="#A9A9A9"/>
<path d="M201.809 666.988C205.297 665.775 283.097 603.595 284.462 599.349C285.069 597.681 276.576 585.852 266.112 571.899C263.837 568.866 261.41 565.681 258.984 562.648C243.211 542.174 226.074 520.791 226.074 520.791L173.904 562.193L208.179 602.837L215.762 611.785C215.762 611.785 196.653 648.941 195.44 653.794C194.53 658.495 198.473 668.201 201.809 666.988Z" fill="#F7A9A0"/>
<path d="M201.808 666.988C205.296 665.775 283.096 603.596 284.461 599.349C285.068 597.378 272.632 580.24 258.983 562.497L208.33 602.837L215.912 611.785C215.912 611.785 196.804 648.941 195.59 653.794C194.529 658.495 198.472 668.201 201.808 666.988Z" fill="white"/>
<path d="M201.809 666.988C205.297 665.775 283.097 603.595 284.462 599.349C285.068 597.681 276.576 585.851 266.111 571.899L215.913 611.785C215.913 611.785 196.804 648.941 195.591 653.794C194.529 658.495 198.472 668.201 201.809 666.988Z" fill="#FFC727"/>
<path d="M200.444 662.892C213.183 652.125 265.808 609.964 279.305 600.409C279.457 600.258 279.457 600.41 279.305 600.561C266.869 611.48 213.941 653.186 200.595 663.195C200.292 663.347 200.14 663.195 200.444 662.892Z" fill="#263238"/>
<path d="M198.472 646.817C201.505 644.239 205.6 643.329 208.784 643.784C211.818 644.239 215.154 645.604 217.277 648.485C217.277 648.637 217.126 648.637 217.126 648.637C212.273 644.087 204.083 643.329 198.623 647.12C198.472 647.12 198.32 646.969 198.472 646.817Z" fill="#263238"/>
<path d="M211.818 617.093C216.974 612.846 224.557 609.813 231.23 611.481C231.533 611.481 231.382 611.936 231.23 611.936C224.557 613.301 218.642 615.121 212.424 617.699C211.818 618.003 211.515 617.396 211.818 617.093Z" fill="#263238"/>
<path d="M209.088 621.794C214.244 617.548 221.827 614.514 228.5 616.183C228.803 616.183 228.652 616.638 228.5 616.638C221.827 618.003 215.913 619.822 209.695 622.401C209.088 622.704 208.785 622.097 209.088 621.794Z" fill="#263238"/>
<path d="M206.358 626.646C211.515 622.4 219.097 619.367 225.77 621.035C226.074 621.035 225.922 621.49 225.77 621.49C219.097 622.855 213.183 624.675 206.965 627.253C206.358 627.556 205.903 626.95 206.358 626.646Z" fill="#263238"/>
<path d="M203.628 631.5C208.785 627.254 216.368 624.221 223.04 625.889C223.344 625.889 223.192 626.344 223.04 626.344C216.368 627.709 210.453 629.528 204.235 632.107C203.477 632.41 203.173 631.803 203.628 631.5Z" fill="#263238"/>
<path d="M266.112 590.704C272.026 586.003 279.306 595.102 273.391 599.804C267.477 604.505 260.197 595.406 266.112 590.704Z" fill="#263238"/>
<path d="M195.136 607.69C196.046 603.444 201.05 602.837 204.539 603.899C210.15 605.415 216.064 609.207 220.008 613.453C220.159 613.605 220.008 613.605 220.008 613.756C220.159 614.211 220.008 614.818 219.401 614.97C213.638 615.425 207.572 616.486 201.809 615.121C198.321 614.211 194.226 611.785 195.136 607.69ZM210.453 613.605C213.335 613.453 216.064 613.15 218.946 613.15C215.913 611.33 213.031 609.358 209.847 607.842C208.33 607.083 206.813 606.325 205.145 605.87C202.567 605.112 194.074 604.809 198.017 610.875C200.14 614.211 206.965 613.756 210.453 613.605Z" fill="#263238"/>
<path d="M234.415 604.959C230.472 609.357 224.709 611.784 219.704 614.665C219.25 614.969 218.643 614.514 218.491 614.059C218.34 614.059 218.34 614.059 218.34 613.907C219.25 608.144 222.131 601.775 225.771 597.376C228.046 594.647 232.595 592.22 235.78 595.405C238.813 598.135 236.69 602.381 234.415 604.959ZM235.173 599.5C235.173 592.22 228.046 597.225 226.529 599.348C225.467 600.713 224.558 602.23 223.648 603.594C221.828 606.628 220.463 609.964 219.098 613.149C221.524 611.632 223.951 610.267 226.377 608.751C229.259 606.931 235.173 603.443 235.173 599.5Z" fill="#263238"/>
<path d="M121.431 482.421C121.582 490.156 129.317 504.411 139.933 520.335C160.406 550.97 191.799 587.671 199.382 596.77C200.596 598.135 201.202 598.742 201.202 598.742L256.405 556.278L255.799 555.52L207.117 491.824L352.252 490.914L297.201 448.147C297.201 448.147 292.803 450.725 283.4 449.36C251.401 444.658 179.212 434.346 162.226 434.952C140.236 435.862 120.976 457.246 121.431 482.421Z" fill="#455A64"/>
<path d="M139.932 520.335C160.406 550.969 191.799 587.67 199.382 596.77L255.798 555.519L207.116 491.823L139.932 520.335Z" fill="#263238"/>
<path d="M189.676 468.014C191.496 469.985 193.013 472.26 194.681 474.383C196.349 476.658 198.169 478.933 199.837 481.056C199.534 480.45 199.231 479.691 198.927 479.085C197.866 476.81 196.956 474.535 195.743 472.412C195.591 472.26 195.894 472.109 195.894 472.26C197.259 474.383 198.776 476.355 199.837 478.63C200.292 479.691 200.899 480.753 201.354 481.815C201.657 482.421 201.809 483.028 202.112 483.635C202.264 483.938 202.416 484.241 202.416 484.545C203.174 485.606 203.932 486.668 204.69 487.729C206.359 490.156 207.724 492.582 209.392 495.009C209.543 495.16 209.24 495.312 209.24 495.16C207.572 492.886 205.752 490.914 203.932 488.639C202.264 486.364 200.596 484.09 198.927 481.815C197.411 479.54 195.743 477.265 194.226 474.99C192.709 472.867 190.89 470.592 189.676 468.014Z" fill="#263238"/>
<path d="M332.386 387.332C322.073 400.071 284.765 436.165 261.41 441.473C248.519 444.355 186.492 453.151 177.999 445.416C167.989 436.317 172.691 402.194 180.577 401.891C204.69 400.981 249.429 405.682 260.652 403.256C265.657 402.194 292.5 384.905 321.163 370.953C331.931 365.645 339.362 378.687 332.386 387.332Z" fill="#F7A9A0"/>
<path d="M190.131 398.857C190.131 398.857 190.283 400.222 190.435 402.497C190.435 402.8 190.435 403.255 190.586 403.71C190.738 404.923 190.89 406.44 191.041 408.108C191.041 408.26 191.041 408.563 191.041 408.714C191.193 410.079 191.345 411.596 191.496 413.113C191.496 413.416 191.648 413.871 191.648 414.326C191.8 415.842 191.951 417.207 192.103 418.876C192.103 419.027 192.103 419.33 192.103 419.482C192.255 420.999 192.406 422.515 192.558 424.032C192.558 424.335 192.71 424.79 192.71 425.245C192.861 426.762 193.013 428.278 193.165 429.795C193.165 429.946 193.165 430.25 193.165 430.401C193.316 431.918 193.468 433.435 193.62 434.951C193.62 435.406 193.771 435.709 193.771 436.164C193.923 437.074 194.075 437.984 194.075 439.046C194.226 439.652 194.226 440.107 194.226 440.714C194.226 440.866 194.226 441.169 194.378 441.321C194.53 442.231 194.529 442.989 194.681 443.747C194.833 444.506 194.833 445.112 194.984 445.719C195.136 446.174 195.136 446.477 195.136 446.932C195.439 449.055 195.743 450.572 195.894 451.482C195.894 451.785 196.046 451.937 196.046 452.088C196.046 452.088 196.046 452.24 196.198 452.24C196.198 452.24 196.501 452.24 196.956 452.088C197.411 452.088 198.169 451.937 199.079 451.937C199.383 451.937 199.837 451.937 200.292 451.785C201.051 451.633 201.809 451.633 202.719 451.482C203.326 451.482 203.932 451.33 204.691 451.33C204.842 451.33 205.145 451.33 205.297 451.33C206.662 451.178 208.179 451.027 209.695 450.875C209.999 450.875 210.453 450.723 210.908 450.723C212.273 450.572 213.79 450.42 215.307 450.268C215.458 450.268 215.761 450.268 215.913 450.268C217.43 450.117 218.795 449.965 220.311 449.814C220.615 449.814 221.069 449.813 221.524 449.662C223.041 449.51 224.406 449.359 225.922 449.207C226.074 449.207 226.377 449.207 226.529 449.207C228.046 449.055 229.411 448.904 230.927 448.752C231.23 448.752 231.685 448.6 232.14 448.6C233.657 448.449 235.174 448.297 236.538 448.145C236.69 448.145 236.993 448.145 237.145 448.145C238.662 447.994 240.178 447.842 241.543 447.69C241.846 447.69 242.301 447.539 242.756 447.539C243.06 447.539 243.363 447.387 243.666 447.387C244.88 447.235 246.093 447.084 247.154 446.932C247.306 446.932 247.609 446.932 247.761 446.932C249.278 446.78 250.794 446.477 252.159 446.325C252.311 446.325 252.311 446.325 252.462 446.325C252.766 446.325 253.069 446.325 253.372 446.174C254.889 446.022 256.406 445.719 257.77 445.567C257.922 445.567 258.225 445.567 258.377 445.415C260.045 445.112 261.41 444.96 262.775 444.657C263.23 444.657 263.533 444.506 263.988 444.506C265.808 444.202 267.325 443.899 268.386 443.596C268.538 443.596 268.841 443.444 268.993 443.444C269.145 443.444 269.145 443.444 269.296 443.292C270.358 442.989 271.571 442.534 272.936 441.776C273.088 441.624 273.239 441.624 273.543 441.472C273.694 441.321 273.846 441.321 274.149 441.169C274.301 441.017 274.604 441.017 274.756 440.866C276.121 440.107 277.637 439.046 279.154 437.984C279.306 437.833 279.609 437.681 279.761 437.529C280.064 437.226 280.519 437.074 280.974 436.771C281.429 436.468 282.036 436.013 282.491 435.558C283.097 435.103 283.704 434.648 284.159 434.193C284.462 433.89 284.917 433.586 285.372 433.283C286.282 432.525 287.192 431.766 288.253 431.008C288.557 430.856 288.708 430.553 289.012 430.401C289.315 430.25 289.618 429.946 289.922 429.643C290.073 429.491 290.377 429.34 290.528 429.188C290.832 429.036 291.135 428.733 291.287 428.582C292.348 427.672 293.41 426.913 294.471 426.003C294.623 425.852 294.775 425.7 294.926 425.548C295.23 425.245 295.533 425.093 295.836 424.79L296.14 424.487C297.656 423.274 299.173 421.909 300.538 420.544C300.689 420.392 300.841 420.392 300.841 420.24C300.993 420.24 300.993 420.089 301.144 420.089C301.296 419.937 301.448 419.785 301.599 419.785C302.964 418.572 304.329 417.359 305.694 416.146C305.997 415.842 306.301 415.539 306.604 415.236C306.756 415.236 306.756 415.084 306.756 415.084C307.059 414.781 307.514 414.477 307.817 414.174C309.03 413.113 310.092 412.051 311.154 410.989L312.67 409.473C312.974 409.169 313.277 409.018 313.429 408.714C313.58 408.563 313.883 408.26 314.035 408.108C315.097 407.198 316.007 406.136 317.068 405.226C317.523 404.923 317.827 404.468 318.282 404.165C318.433 404.013 318.585 403.861 318.888 403.71C319.343 403.255 319.798 402.951 320.101 402.497C321.011 401.587 321.921 400.677 322.831 399.918C322.983 399.767 323.286 399.463 323.438 399.312C323.893 398.857 324.348 398.402 324.803 397.947C324.954 397.795 325.258 397.492 325.409 397.34C326.319 396.43 327.078 395.672 327.988 394.914C328.443 394.459 328.746 394.155 329.201 393.7C329.504 393.397 329.807 393.094 330.111 392.942C330.414 392.639 330.717 392.336 331.021 392.032L331.172 391.881C332.082 390.971 332.992 389.909 333.599 388.847C333.751 388.544 334.054 388.241 334.206 387.937C334.357 387.786 334.509 387.482 334.66 387.331C334.812 387.179 334.964 386.876 334.964 386.724C335.874 385.208 336.48 383.691 336.935 382.326C337.087 381.871 337.239 381.568 337.239 381.113C337.694 379.596 337.845 378.08 337.694 376.715C337.694 376.563 337.694 376.26 337.694 376.108C337.542 374.44 336.935 372.923 336.025 371.71C335.722 371.255 335.267 370.952 334.964 370.497C334.66 370.345 334.509 370.042 334.206 369.89C334.054 369.739 333.902 369.587 333.599 369.587C332.386 368.98 330.869 368.525 329.201 368.525C328.898 368.525 328.443 368.525 327.988 368.525C326.774 368.525 325.561 368.677 324.196 368.98C324.045 368.98 323.741 369.132 323.438 369.132C323.286 369.132 322.983 369.284 322.831 369.284C321.77 369.587 320.556 369.89 319.343 370.497C319.04 370.649 318.737 370.8 318.433 370.952C318.13 371.104 317.675 371.255 317.22 371.407C317.068 371.559 316.917 371.559 316.613 371.71C315.855 372.014 315.097 372.468 314.187 372.923C313.732 373.227 313.125 373.378 312.67 373.682L312.064 373.985C310.699 374.743 309.334 375.502 307.969 376.108C307.817 376.108 307.666 376.26 307.514 376.26C307.211 376.412 307.059 376.563 306.756 376.715C306.604 376.867 306.452 376.867 306.301 377.018C304.784 377.776 303.267 378.686 301.903 379.445C301.751 379.596 301.448 379.596 301.296 379.748C300.386 380.203 299.628 380.658 298.718 381.113C298.111 381.416 297.505 381.871 296.898 382.175C296.746 382.175 296.746 382.326 296.746 382.326C296.443 382.478 296.14 382.629 295.836 382.933C294.32 383.843 292.803 384.601 291.438 385.511C291.287 385.663 290.983 385.814 290.832 385.814C290.225 386.118 289.618 386.573 289.012 386.876C288.708 387.028 288.253 387.331 287.95 387.483C287.344 387.786 286.889 388.089 286.282 388.392C285.827 388.696 285.524 388.847 285.069 388.999C283.552 389.909 282.036 390.667 280.671 391.577C280.519 391.729 280.367 391.881 280.064 391.881C279.457 392.336 278.699 392.639 278.092 393.094C277.183 393.549 276.424 394.004 275.666 394.459C275.211 394.61 274.908 394.914 274.453 395.065C272.936 395.975 271.42 396.734 270.055 397.492H269.903C269.751 397.644 269.448 397.643 269.296 397.795C269.145 397.795 268.993 397.947 268.841 397.947C267.325 398.705 265.96 399.463 264.747 400.07C264.292 400.222 263.988 400.373 263.533 400.677C261.714 401.587 260.197 402.042 259.135 402.497C258.984 402.497 258.984 402.497 258.832 402.497C258.68 402.497 258.529 402.497 258.529 402.648C258.377 402.648 258.074 402.8 257.922 402.8C257.164 402.8 255.951 402.952 254.131 402.8C253.827 402.8 253.372 402.8 252.917 402.8C251.553 402.8 250.036 402.8 248.519 402.648C248.368 402.648 248.064 402.648 247.913 402.648C247.306 402.648 246.699 402.648 246.093 402.497C245.183 402.497 244.273 402.497 243.363 402.345C242.908 402.345 242.605 402.345 242.15 402.345C240.785 402.345 239.268 402.193 237.752 402.042C237.6 402.042 237.297 402.042 237.145 402.042C235.629 401.89 234.264 401.89 232.747 401.738C232.444 401.738 231.989 401.738 231.534 401.738C230.017 401.587 228.652 401.587 227.136 401.435C226.984 401.435 226.681 401.435 226.529 401.435C225.013 401.283 223.496 401.283 222.131 401.132C221.676 401.132 221.373 401.132 220.918 401.132C219.401 400.98 217.885 400.98 216.52 400.828C216.368 400.828 216.065 400.828 215.913 400.828C214.397 400.677 212.88 400.677 211.515 400.525C211.06 400.525 210.757 400.525 210.302 400.525C208.785 400.373 207.269 400.373 205.904 400.222C205.752 400.222 205.449 400.222 205.297 400.222C203.781 400.07 202.264 400.07 200.899 399.918C200.444 399.918 200.141 399.918 199.686 399.767C198.018 399.615 196.501 399.615 195.288 399.463C195.136 399.463 194.833 399.463 194.681 399.463C191.648 399.008 190.131 398.857 190.131 398.857Z" fill="#FFC727"/>
<path opacity="0.2" d="M333.447 369.436V388.848C333.599 388.545 333.902 388.241 334.054 387.938V369.739C333.751 369.739 333.599 369.587 333.447 369.436Z" fill="white"/>
<path opacity="0.2" d="M322.679 369.284V399.918C322.831 399.767 323.134 399.463 323.286 399.312V369.132C323.134 369.132 322.983 369.132 322.679 369.284Z" fill="white"/>
<path opacity="0.2" d="M327.836 368.373V394.913C328.291 394.458 328.594 394.154 329.049 393.7V368.373C328.594 368.373 328.139 368.373 327.836 368.373Z" fill="white"/>
<path opacity="0.2" d="M317.067 371.254V405.225C317.522 404.922 317.825 404.467 318.28 404.164V370.799C317.825 370.951 317.522 371.102 317.067 371.254Z" fill="white"/>
<path opacity="0.2" d="M312.063 373.834V409.928L312.67 409.473V373.531L312.063 373.834Z" fill="white"/>
<path opacity="0.2" d="M301.295 379.595V419.633C301.447 419.481 301.599 419.481 301.599 419.329C301.75 419.329 301.75 419.178 301.902 419.178V379.292C301.75 379.444 301.447 379.444 301.295 379.595Z" fill="white"/>
<path opacity="0.2" d="M306.452 376.867V415.236C306.755 414.933 307.059 414.629 307.362 414.326H307.514V376.26C307.21 376.412 307.059 376.564 306.756 376.715C306.604 376.715 306.452 376.715 306.452 376.867Z" fill="white"/>
<path opacity="0.2" d="M295.684 382.78V424.638C295.988 424.334 296.291 424.183 296.594 423.879L296.897 423.576V382.174C296.746 382.174 296.746 382.325 296.746 382.325C296.291 382.477 295.988 382.629 295.684 382.78Z" fill="white"/>
<path opacity="0.2" d="M290.68 385.663V428.734C290.831 428.582 291.135 428.43 291.286 428.279V385.36C290.983 385.36 290.831 385.511 290.68 385.663Z" fill="white"/>
<path opacity="0.2" d="M279.912 391.729V436.922C280.064 436.771 280.367 436.619 280.519 436.467V391.425C280.367 391.577 280.215 391.729 279.912 391.729Z" fill="white"/>
<path opacity="0.2" d="M285.068 388.846V433.13C285.372 432.827 285.827 432.523 286.282 432.22V388.24C285.827 388.391 285.372 388.694 285.068 388.846Z" fill="white"/>
<path opacity="0.2" d="M274.301 395.065V440.562C274.452 440.411 274.604 440.411 274.907 440.259H275.514V394.307C275.059 394.61 274.604 394.762 274.301 395.065Z" fill="white"/>
<path opacity="0.2" d="M269.296 397.795V442.534C269.448 442.534 269.751 442.382 269.903 442.382V397.492C269.599 397.492 269.448 397.643 269.296 397.795Z" fill="white"/>
<path opacity="0.2" d="M258.528 402.497V444.506C258.68 444.506 258.983 444.506 259.135 444.354V402.345C258.983 402.345 258.983 402.345 258.831 402.345H258.528V402.497Z" fill="white"/>
<path opacity="0.2" d="M263.533 400.675V443.746C263.988 443.746 264.291 443.594 264.746 443.594V400.22C264.291 400.22 263.988 400.372 263.533 400.675Z" fill="white"/>
<path opacity="0.2" d="M252.917 402.648V445.264C253.068 445.264 253.068 445.264 253.22 445.264H254.13V402.8C253.675 402.648 253.372 402.648 252.917 402.648Z" fill="white"/>
<path opacity="0.2" d="M247.912 402.496V445.87C248.063 445.87 248.367 445.87 248.518 445.87V402.496C248.215 402.496 248.063 402.496 247.912 402.496Z" fill="white"/>
<path opacity="0.2" d="M237.145 402.041V447.235C237.297 447.235 237.6 447.235 237.752 447.235V402.041C237.6 402.041 237.297 402.041 237.145 402.041Z" fill="white"/>
<path opacity="0.2" d="M242.301 402.193V446.628C242.604 446.628 243.059 446.476 243.514 446.476V402.344C243.059 402.344 242.604 402.344 242.301 402.193Z" fill="white"/>
<path opacity="0.2" d="M231.533 401.739V447.994C231.837 447.994 232.292 447.842 232.747 447.842V401.89C232.292 401.739 231.988 401.739 231.533 401.739Z" fill="white"/>
<path opacity="0.2" d="M226.528 401.283V448.297C226.68 448.297 226.983 448.297 227.135 448.297V401.283C226.832 401.435 226.68 401.435 226.528 401.283Z" fill="white"/>
<path opacity="0.2" d="M215.761 400.675V449.509C215.912 449.509 216.216 449.509 216.367 449.509V400.675C216.216 400.675 215.912 400.675 215.761 400.675Z" fill="white"/>
<path opacity="0.2" d="M220.765 400.979V449.055C221.069 449.055 221.524 449.055 221.979 448.903V401.131C221.675 401.131 221.22 400.979 220.765 400.979Z" fill="white"/>
<path opacity="0.2" d="M210.149 400.373V450.268C210.453 450.268 210.908 450.116 211.363 450.116V400.373C210.908 400.373 210.453 400.373 210.149 400.373Z" fill="white"/>
<path opacity="0.2" d="M205.145 399.918V450.571C205.297 450.571 205.6 450.571 205.752 450.571V399.918C205.448 399.918 205.297 399.918 205.145 399.918Z" fill="white"/>
<path opacity="0.2" d="M194.377 399.159V438.438C194.529 439.044 194.529 439.499 194.529 440.106C194.529 440.258 194.529 440.561 194.68 440.713C194.832 441.623 194.832 442.381 194.984 443.139V399.159C194.832 399.159 194.529 399.159 194.377 399.159Z" fill="white"/>
<path opacity="0.2" d="M199.533 399.614V451.329C199.837 451.329 200.292 451.329 200.747 451.178V399.766C200.292 399.614 199.837 399.614 199.533 399.614Z" fill="white"/>
<path opacity="0.2" d="M196.197 450.876C196.197 451.179 196.349 451.331 196.349 451.483H197.259C197.713 451.483 198.472 451.331 199.382 451.331C199.685 451.331 200.14 451.331 200.595 451.179C201.353 451.028 202.112 451.028 203.021 450.876H196.197Z" fill="white"/>
<path opacity="0.2" d="M195.287 445.263C195.439 445.718 195.439 446.021 195.439 446.476H244.272C245.486 446.325 246.699 446.173 247.76 446.021C247.912 446.021 248.215 446.021 248.367 446.021C249.884 445.87 251.4 445.567 252.765 445.415C252.917 445.415 252.917 445.415 253.068 445.415H195.287V445.263Z" fill="white"/>
<path opacity="0.2" d="M194.529 440.107C194.529 440.258 194.529 440.562 194.681 440.713H273.694C273.846 440.562 273.997 440.562 274.301 440.41C274.452 440.258 274.604 440.258 274.907 440.107H194.529Z" fill="white"/>
<path opacity="0.2" d="M193.316 429.49C193.316 429.642 193.316 429.945 193.316 430.097H289.011C289.315 429.945 289.466 429.642 289.77 429.49H193.316Z" fill="white"/>
<path opacity="0.2" d="M193.923 434.495C193.923 434.95 194.074 435.254 194.074 435.709H281.732C282.187 435.405 282.794 434.95 283.249 434.495H193.923Z" fill="white"/>
<path opacity="0.2" d="M192.709 423.88C192.709 424.183 192.86 424.638 192.86 425.093H295.229C295.381 424.941 295.532 424.79 295.684 424.638C295.987 424.335 296.29 424.183 296.594 423.88H192.709Z" fill="white"/>
<path opacity="0.2" d="M192.254 418.724C192.254 418.875 192.254 419.179 192.254 419.33H301.75C301.902 419.33 301.902 419.179 302.053 419.179C302.205 419.027 302.357 418.875 302.508 418.875H192.254V418.724Z" fill="white"/>
<path opacity="0.2" d="M191.041 408.108C191.041 408.259 191.041 408.563 191.041 408.714H313.276C313.428 408.563 313.731 408.259 313.883 408.108H191.041Z" fill="white"/>
<path opacity="0.2" d="M191.648 413.112C191.648 413.416 191.799 413.871 191.799 414.326H307.665V414.022C307.968 413.719 308.423 413.416 308.727 413.112H191.648Z" fill="white"/>
<path opacity="0.2" d="M190.434 402.496C190.434 402.799 190.434 403.254 190.585 403.709H318.735C319.19 403.254 319.645 402.951 319.949 402.496H258.528V402.648C258.376 402.648 258.073 402.799 257.921 402.799C257.163 402.799 255.95 402.951 254.13 402.799C253.826 402.799 253.371 402.799 252.916 402.799C251.551 402.799 250.035 402.799 248.518 402.648C248.367 402.648 248.063 402.648 247.912 402.648C247.305 402.648 246.698 402.648 246.092 402.496H190.434Z" fill="white"/>
<path opacity="0.2" d="M268.841 397.946H324.651C324.802 397.795 325.106 397.492 325.257 397.34H269.903C269.751 397.492 269.448 397.492 269.296 397.643C269.144 397.795 268.993 397.946 268.841 397.946Z" fill="white"/>
<path opacity="0.2" d="M287.798 387.33H334.509C334.66 387.179 334.812 386.876 334.812 386.724H288.86C288.405 386.876 288.102 387.027 287.798 387.33Z" fill="white"/>
<path opacity="0.2" d="M277.94 392.941H329.807C330.11 392.638 330.413 392.334 330.717 392.031L330.868 391.879H279.912C279.305 392.183 278.547 392.638 277.94 392.941Z" fill="white"/>
<path opacity="0.2" d="M296.595 382.173H336.784C336.935 381.718 337.087 381.415 337.087 380.96H298.718C298.111 381.263 297.504 381.718 296.898 382.022C296.746 382.173 296.746 382.173 296.595 382.173Z" fill="white"/>
<path opacity="0.2" d="M306.755 376.562H337.541C337.541 376.411 337.541 376.107 337.541 375.956H307.968C307.817 375.956 307.665 376.107 307.513 376.107C307.362 376.259 307.058 376.411 306.755 376.562Z" fill="white"/>
<path opacity="0.2" d="M316.461 371.558H335.873C335.57 371.103 335.115 370.8 334.812 370.345H319.191C318.888 370.497 318.584 370.648 318.281 370.8C317.978 370.952 317.523 371.103 317.068 371.255C316.916 371.407 316.613 371.407 316.461 371.558Z" fill="white"/>
<path d="M292.045 427.672C306.452 415.691 323.134 399.767 330.717 392.033C341.333 381.265 340.272 365.341 324.044 368.981C319.646 376.26 300.386 412.051 292.045 427.672Z" fill="#263238"/>
<path d="M200.141 403.559C200.141 403.408 200.293 403.408 200.444 403.559C201.203 407.047 201.354 410.687 201.809 414.175C202.264 417.815 202.568 421.606 202.871 425.246C203.477 432.526 204.236 439.957 204.539 447.388C204.539 447.691 204.084 447.691 204.084 447.388C203.022 440.109 202.416 432.829 201.658 425.55C201.354 421.91 201.051 418.27 200.748 414.63C200.444 410.99 200.141 407.199 200.141 403.559Z" fill="#263238"/>
<path d="M288.255 481.661C288.407 481.813 289.317 482.116 290.681 482.42C290.833 482.42 291.136 482.571 291.288 482.571C291.743 482.723 292.35 482.723 292.805 482.875C293.715 483.026 294.625 483.178 295.686 483.33C295.838 483.33 295.989 483.33 296.141 483.33C296.293 483.33 296.596 483.481 296.899 483.481C298.264 483.633 299.781 483.936 301.297 484.239C301.449 484.239 301.752 484.239 301.904 484.391C303.269 484.543 304.786 484.846 306.302 484.998C306.605 484.998 307.06 485.149 307.515 485.149C308.88 485.301 310.397 485.604 311.913 485.756C312.065 485.756 312.368 485.756 312.52 485.756C313.885 485.908 315.402 486.211 316.918 486.363C317.221 486.363 317.676 486.514 318.131 486.514C319.648 486.666 321.013 486.818 322.529 487.121C322.681 487.121 322.984 487.121 323.136 487.121C323.743 487.273 324.349 487.273 324.956 487.424C325.866 487.576 326.776 487.576 327.686 487.728C327.837 487.728 327.989 487.728 328.141 487.728C328.292 487.728 328.596 487.728 328.747 487.879C330.264 488.031 331.78 488.183 333.145 488.486C333.297 488.486 333.6 488.486 333.752 488.486C334.965 488.637 336.33 488.789 337.543 488.941C337.695 488.941 337.998 488.941 338.15 489.092C338.453 489.092 338.908 489.244 339.363 489.244C340.88 489.396 342.396 489.547 343.761 489.851C343.913 489.851 344.216 489.851 344.368 489.851C345.885 490.002 347.401 490.154 348.766 490.306C349.221 490.306 349.524 490.457 349.979 490.457C351.496 490.609 353.012 490.761 354.377 490.912C354.529 490.912 354.832 490.912 354.984 490.912C356.501 491.064 358.017 491.216 359.382 491.367C359.837 491.367 360.14 491.519 360.595 491.519C362.112 491.671 363.628 491.822 364.993 491.974C365.145 491.974 365.448 491.974 365.6 492.126C365.903 492.126 366.055 492.126 366.358 492.126C367.571 492.277 368.936 492.429 369.998 492.581C370.453 492.581 370.756 492.732 371.211 492.732C372.879 492.884 374.396 493.036 375.609 493.187C375.761 493.187 376.064 493.187 376.216 493.339H376.368C378.036 493.49 379.401 493.642 380.614 493.794C381.069 493.794 381.372 493.794 381.827 493.945C382.282 493.945 382.737 493.945 383.04 494.097C383.647 494.097 384.102 494.097 384.102 494.097C384.102 494.097 384.254 493.794 384.254 493.49C384.254 492.732 384.254 491.216 384.102 489.092C384.102 488.789 384.102 488.334 383.95 487.879C383.799 486.514 383.647 484.998 383.495 483.33C383.495 483.178 383.495 482.875 383.495 482.723C383.344 481.358 383.192 479.841 383.04 478.173C383.04 477.87 382.889 477.415 382.889 476.96C382.737 475.595 382.586 474.078 382.282 472.41C382.282 472.259 382.282 471.955 382.131 471.804C381.979 471.045 381.979 470.135 381.827 469.377C381.676 468.77 381.676 468.012 381.524 467.254C381.524 466.951 381.372 466.496 381.372 466.041C381.221 464.524 380.917 463.159 380.766 461.643L380.614 461.036C380.614 461.036 380.614 460.884 380.614 460.733C380.462 459.368 380.159 458.003 380.007 456.486C380.007 456.183 379.856 455.728 379.856 455.273C379.552 453.756 379.401 452.24 379.097 450.723C379.097 450.572 379.097 450.268 378.946 450.117C378.642 448.6 378.491 447.083 378.187 445.567C378.187 445.264 378.036 444.809 378.036 444.354C377.884 442.837 377.581 441.321 377.278 439.956C377.278 439.804 377.126 439.501 377.126 439.349C376.823 437.832 376.671 436.316 376.368 434.951C376.368 434.648 376.216 434.193 376.216 433.738C376.064 433.283 376.064 432.979 376.064 432.524C375.913 431.463 375.609 430.401 375.458 429.188C375.458 429.188 375.458 429.188 375.458 429.036C375.458 428.885 375.458 428.733 375.306 428.581C375.003 427.065 374.699 425.548 374.396 424.032C374.396 423.728 374.244 423.273 374.093 422.818C373.789 421.302 373.486 419.785 373.183 418.269C373.183 418.117 373.031 417.814 373.031 417.662C372.728 416.145 372.424 414.629 372.121 413.112C371.97 412.657 371.97 412.354 371.818 411.899C371.515 410.383 371.211 408.866 370.756 407.501C370.756 407.349 370.756 407.198 370.605 407.046V406.894C370.301 405.378 369.846 403.861 369.543 402.496C369.543 402.345 369.543 402.193 369.391 402.193C369.391 401.89 369.24 401.586 369.24 401.435C368.936 399.918 368.481 398.402 368.026 397.037C368.026 396.885 367.875 396.582 367.875 396.43C367.42 394.914 366.965 393.397 366.662 392.032C366.51 391.577 366.358 391.274 366.358 390.819C365.903 389.454 365.448 388.089 364.993 386.724C364.993 386.572 364.842 386.421 364.842 386.269C364.842 386.117 364.69 385.814 364.69 385.662C364.538 385.511 364.538 385.207 364.387 385.056C364.083 384.298 363.932 383.539 363.628 382.933C363.325 382.326 363.173 381.871 363.022 381.264C362.87 380.809 362.718 380.506 362.567 380.051C361.809 378.231 360.899 376.715 360.14 375.653C359.989 375.501 359.837 375.198 359.685 375.046C359.382 374.743 359.23 374.44 358.927 374.137C358.775 373.985 358.624 373.833 358.472 373.682C358.169 373.378 357.865 373.227 357.714 372.923C356.652 372.013 355.742 371.255 354.832 370.497C354.681 370.345 354.529 370.345 354.529 370.193C354.377 370.042 354.074 369.89 353.922 369.738C353.771 369.587 353.619 369.435 353.316 369.284C351.951 368.222 350.586 367.464 349.373 366.705C348.918 366.402 348.614 366.25 348.159 365.947C348.008 365.947 348.008 365.795 347.856 365.795C347.249 365.492 346.643 365.189 345.733 364.885C345.126 364.734 344.368 364.43 343.61 364.279H343.458C343.306 364.279 343.155 364.279 343.003 364.127C341.638 363.824 340.122 363.672 338.605 363.521C338.15 363.521 337.847 363.521 337.392 363.521C335.875 363.369 334.359 363.369 332.994 363.369H332.387C330.719 363.369 329.202 363.521 327.989 363.672C327.534 363.672 327.231 363.824 326.776 363.824C325.866 363.976 325.108 364.127 324.653 364.127C324.501 364.127 324.501 364.127 324.349 364.279C324.046 364.43 323.894 364.582 323.591 364.734C323.288 365.037 322.833 365.492 322.226 365.947C322.074 366.099 321.771 366.402 321.619 366.554C321.013 367.312 320.406 368.07 319.648 369.132C319.345 369.435 319.041 369.89 318.89 370.345C318.283 371.103 317.676 372.013 317.221 373.075C316.918 373.682 316.463 374.288 316.16 374.895L316.008 375.046C316.008 375.198 315.856 375.35 315.856 375.501C315.098 376.866 314.34 378.383 313.582 379.899C313.43 380.203 313.278 380.658 312.975 381.113C312.52 382.174 312.065 383.236 311.61 384.298C311.458 384.753 311.307 385.056 311.155 385.511C311.155 385.662 311.003 385.814 311.003 385.814C311.003 385.966 311.003 385.966 310.852 386.117C310.397 387.482 309.942 388.999 309.487 390.364V390.515C309.335 390.819 309.335 391.274 309.184 391.729C308.88 392.942 308.577 394.459 307.97 396.127C307.97 396.278 307.819 396.582 307.819 396.733C307.515 398.098 307.06 399.615 306.605 401.131C306.605 401.435 306.454 401.89 306.302 402.193V402.345C305.999 403.71 305.544 405.075 305.089 406.591V406.743C305.089 406.894 304.937 407.198 304.937 407.349C304.634 408.714 304.179 410.231 303.724 411.747C303.572 412.051 303.572 412.506 303.421 412.961C303.117 414.477 302.662 415.842 302.207 417.51C302.207 417.662 302.056 417.965 302.056 418.117C301.752 419.634 301.297 421.15 300.842 422.667C300.691 422.97 300.691 423.425 300.539 423.728C300.539 423.728 300.539 423.728 300.539 423.88C300.387 424.638 300.236 425.397 299.933 426.003C299.781 426.761 299.478 427.52 299.326 428.278C299.326 428.43 299.174 428.733 299.174 428.885C298.871 430.401 298.416 431.918 297.961 433.434C297.809 433.738 297.809 434.193 297.658 434.648C297.203 436.164 296.899 437.681 296.444 439.046C296.444 439.197 296.293 439.501 296.293 439.652C295.989 440.866 295.686 442.079 295.383 443.14C295.231 443.444 295.231 443.747 295.079 444.05C294.928 444.354 294.928 444.809 294.776 445.264C294.625 446.174 294.321 446.932 294.17 447.69C294.018 448.448 293.866 449.055 293.715 449.662C293.715 449.813 293.563 450.117 293.563 450.268C293.26 451.785 292.805 453.301 292.501 454.818C292.35 455.273 292.35 455.576 292.198 456.031C291.895 457.548 291.44 459.064 291.136 460.429C291.136 460.581 290.985 460.884 290.985 461.036C290.681 462.552 290.226 464.069 289.923 465.434C289.771 465.737 289.771 466.192 289.62 466.496C289.468 466.951 289.468 467.406 289.317 468.012C289.013 469.074 288.862 470.135 288.558 471.045C288.558 471.197 288.407 471.5 288.407 471.652C287.952 473.32 287.648 474.837 287.497 476.202C287.345 476.657 287.345 476.96 287.345 477.415C288.255 480.448 288.103 481.51 288.255 481.661Z" fill="#FFC727"/>
<path opacity="0.2" d="M376.216 429.947V493.491C376.368 493.491 376.671 493.491 376.823 493.643V433.283C376.519 432.222 376.368 431.16 376.216 429.947Z" fill="white"/>
<path opacity="0.2" d="M381.219 461.341V494.099C381.674 494.099 381.978 494.099 382.433 494.25V469.985C382.281 469.379 382.281 468.62 382.129 467.862C382.129 467.559 381.978 467.104 381.978 466.649C381.826 465.132 381.523 463.767 381.371 462.251L381.219 461.644C381.219 461.492 381.219 461.341 381.219 461.341Z" fill="white"/>
<path opacity="0.2" d="M370.604 403.254V492.884C371.059 492.884 371.362 493.035 371.817 493.035V408.107C371.514 406.591 371.059 405.074 370.756 403.709C370.604 403.558 370.604 403.406 370.604 403.254Z" fill="white"/>
<path opacity="0.2" d="M365.449 385.968V492.279C365.6 492.279 365.904 492.279 366.055 492.431V387.636C366.055 387.484 365.904 387.332 365.904 387.181C365.904 387.029 365.752 386.726 365.752 386.574C365.6 386.422 365.6 386.271 365.449 385.968Z" fill="white"/>
<path opacity="0.2" d="M354.832 370.801V491.216C354.984 491.216 355.287 491.216 355.439 491.216V371.256C355.136 371.104 354.984 370.952 354.832 370.801Z" fill="white"/>
<path opacity="0.2" d="M359.836 375.047V491.671C360.291 491.671 360.595 491.823 361.05 491.823V376.412C360.898 376.26 360.746 375.957 360.595 375.805C360.291 375.654 360.14 375.35 359.836 375.047Z" fill="white"/>
<path opacity="0.2" d="M349.22 367.01V490.61C349.675 490.61 349.979 490.762 350.434 490.762V367.768C349.979 367.465 349.524 367.313 349.22 367.01Z" fill="white"/>
<path opacity="0.2" d="M344.064 365.191V489.853C344.216 489.853 344.519 489.853 344.671 489.853V365.191H344.519C344.368 365.342 344.216 365.191 344.064 365.191Z" fill="white"/>
<path opacity="0.2" d="M333.448 364.583V488.639C333.6 488.639 333.903 488.639 334.055 488.639V364.432H333.448V364.583Z" fill="white"/>
<path opacity="0.2" d="M338.453 364.582V489.244C338.756 489.244 339.211 489.396 339.666 489.396V364.582C339.211 364.582 338.908 364.582 338.453 364.582Z" fill="white"/>
<path opacity="0.2" d="M327.686 364.887V487.88C327.837 487.88 327.989 487.88 328.141 487.88C328.292 487.88 328.596 487.88 328.747 488.032V364.735C328.444 364.887 328.141 364.887 327.686 364.887Z" fill="white"/>
<path opacity="0.2" d="M322.681 367.92V487.425C322.832 487.425 323.136 487.425 323.287 487.425V367.313C323.136 367.313 322.984 367.616 322.681 367.92Z" fill="white"/>
<path opacity="0.2" d="M312.064 386.725V485.908C312.216 485.908 312.519 485.908 312.671 485.908V385.36C312.519 385.815 312.368 386.27 312.064 386.725Z" fill="white"/>
<path opacity="0.2" d="M317.07 376.261V486.667C317.373 486.667 317.828 486.819 318.283 486.819V374.289C317.98 374.896 317.525 375.503 317.221 376.109C317.07 376.109 317.07 376.109 317.07 376.261Z" fill="white"/>
<path opacity="0.2" d="M306.454 407.958V485.151C306.757 485.151 307.212 485.303 307.667 485.303V403.408V403.56C307.212 404.925 306.757 406.441 306.454 407.958Z" fill="white"/>
<path opacity="0.2" d="M301.297 427.217V484.392C301.448 484.392 301.752 484.392 301.903 484.544V425.094C301.903 425.094 301.903 425.094 301.903 425.246C301.752 425.701 301.448 426.459 301.297 427.217Z" fill="white"/>
<path opacity="0.2" d="M290.681 469.226V482.42C290.832 482.42 291.136 482.572 291.287 482.572V466.648C291.136 466.951 291.136 467.406 290.984 467.71C290.832 468.316 290.681 468.771 290.681 469.226Z" fill="white"/>
<path opacity="0.2" d="M295.686 448.905V483.482C295.838 483.482 295.989 483.482 296.141 483.482C296.293 483.482 296.596 483.634 296.899 483.634V444.355C296.748 444.658 296.747 444.962 296.596 445.265C296.444 445.568 296.444 446.023 296.293 446.478C296.141 447.236 295.838 447.995 295.686 448.905Z" fill="white"/>
<path opacity="0.2" d="M376.974 493.644C378.642 493.795 380.007 493.947 381.22 494.099C381.675 494.099 381.979 494.099 382.434 494.25V494.402H384.708C384.708 494.402 384.86 494.099 384.86 493.795H376.974V493.644Z" fill="white"/>
<path opacity="0.2" d="M328.291 488.032C328.443 488.032 328.746 488.032 328.898 488.184C330.415 488.335 331.931 488.487 333.296 488.79C333.448 488.79 333.751 488.79 333.903 488.79C335.116 488.942 336.481 489.094 337.694 489.245H384.556C384.556 488.942 384.556 488.487 384.404 488.032H328.291Z" fill="white"/>
<path opacity="0.2" d="M292.804 482.876C293.714 483.028 294.624 483.179 295.686 483.331C295.838 483.331 295.989 483.331 296.141 483.331H384.102C384.102 483.179 384.102 482.876 384.102 482.724H292.804V482.876Z" fill="white"/>
<path opacity="0.2" d="M289.771 472.866H382.737C382.737 472.714 382.737 472.411 382.585 472.259H289.923C289.923 472.411 289.771 472.562 289.771 472.866Z" fill="white"/>
<path opacity="0.2" d="M288.558 478.478H383.495C383.495 478.175 383.344 477.72 383.344 477.265H288.861C288.71 477.72 288.558 478.175 288.558 478.478Z" fill="white"/>
<path opacity="0.2" d="M290.984 467.709H382.13C382.13 467.406 381.978 466.951 381.978 466.496H291.288C291.136 467.103 290.984 467.406 290.984 467.709Z" fill="white"/>
<path opacity="0.2" d="M292.35 462.099H381.372L381.221 461.492H292.501C292.501 461.796 292.35 461.947 292.35 462.099Z" fill="white"/>
<path opacity="0.2" d="M295.079 451.483H379.703C379.703 451.331 379.703 451.028 379.552 450.876H295.079C295.079 451.028 295.079 451.18 295.079 451.483Z" fill="white"/>
<path opacity="0.2" d="M293.563 457.093H380.614C380.614 456.79 380.463 456.335 380.463 455.88H293.866C293.866 456.335 293.715 456.638 293.563 457.093Z" fill="white"/>
<path opacity="0.2" d="M296.293 446.327H378.946C378.946 446.024 378.795 445.569 378.795 445.114H296.596C296.596 445.569 296.445 446.024 296.293 446.327Z" fill="white"/>
<path opacity="0.2" d="M297.809 440.715H378.035C378.035 440.563 377.884 440.26 377.884 440.108H297.809C297.809 440.411 297.809 440.563 297.809 440.715Z" fill="white"/>
<path opacity="0.2" d="M300.538 430.099H376.215C376.215 430.099 376.215 430.099 376.215 429.947C376.215 429.796 376.215 429.644 376.064 429.492H300.69C300.69 429.644 300.69 429.947 300.538 430.099Z" fill="white"/>
<path opacity="0.2" d="M299.174 435.711H377.277C377.277 435.407 377.126 434.952 377.126 434.497H299.477C299.326 434.952 299.174 435.256 299.174 435.711Z" fill="white"/>
<path opacity="0.2" d="M301.904 424.942H375.154C375.154 424.638 375.002 424.183 374.851 423.729H302.055C302.055 424.183 302.055 424.487 301.904 424.942Z" fill="white"/>
<path opacity="0.2" d="M303.42 419.331H374.244C374.244 419.179 374.092 418.876 374.092 418.724H303.572C303.42 419.028 303.42 419.179 303.42 419.331Z" fill="white"/>
<path opacity="0.2" d="M306.15 408.715H371.817C371.817 408.564 371.817 408.412 371.665 408.26V408.109H306.301C306.301 408.26 306.301 408.564 306.15 408.715Z" fill="white"/>
<path opacity="0.2" d="M304.634 414.326H373.031C372.879 413.871 372.879 413.568 372.728 413.113H304.937C304.937 413.568 304.785 413.871 304.634 414.326Z" fill="white"/>
<path opacity="0.2" d="M307.516 403.558H370.605C370.605 403.406 370.605 403.254 370.453 403.254C370.453 402.951 370.302 402.648 370.302 402.496H307.819C307.667 402.799 307.667 403.103 307.516 403.558Z" fill="white"/>
<path opacity="0.2" d="M309.032 397.947H369.24C369.24 397.796 369.088 397.492 369.088 397.341H309.184C309.032 397.644 309.032 397.796 309.032 397.947Z" fill="white"/>
<path opacity="0.2" d="M311.913 387.332H365.903C365.903 387.181 365.752 386.877 365.752 386.726H312.065V387.029C311.913 387.181 311.913 387.181 311.913 387.332Z" fill="white"/>
<path opacity="0.2" d="M310.245 392.943H367.723C367.572 392.488 367.42 392.185 367.42 391.73H310.549C310.549 392.033 310.397 392.488 310.245 392.943Z" fill="white"/>
<path opacity="0.2" d="M314.036 382.176H364.083C363.931 381.721 363.78 381.417 363.628 380.962H314.643C314.339 381.417 314.188 381.872 314.036 382.176Z" fill="white"/>
<path opacity="0.2" d="M316.917 376.564H361.05C360.898 376.412 360.746 376.109 360.595 375.957H317.221L317.069 376.109C317.069 376.26 316.917 376.412 316.917 376.564Z" fill="white"/>
<path opacity="0.2" d="M324.653 365.947H346.946C346.34 365.795 345.581 365.492 344.823 365.34H325.866C325.714 365.34 325.714 365.34 325.563 365.492C325.259 365.492 324.956 365.644 324.653 365.947Z" fill="white"/>
<path opacity="0.2" d="M319.951 371.56H355.742C355.59 371.408 355.439 371.408 355.439 371.257C355.287 371.105 354.984 370.953 354.832 370.802C354.68 370.65 354.529 370.498 354.225 370.347H320.861C320.558 370.802 320.254 371.105 319.951 371.56Z" fill="white"/>
<path d="M325.107 487.576C339.363 489.396 355.135 491.216 366.813 492.581L364.689 383.994C363.021 379.596 361.201 376.411 359.381 374.743C359.078 374.44 358.775 374.288 358.623 373.985L325.107 487.576Z" fill="#263238"/>
<path d="M305.391 472.409C306.15 469.073 306.908 465.736 307.515 462.248C309.031 455.575 310.548 448.751 312.064 442.078C315.249 428.581 318.586 415.083 321.922 401.586C323.894 394.003 325.865 386.572 327.837 378.989C327.837 378.837 328.14 378.837 327.988 378.989C324.5 392.335 321.467 405.984 318.282 419.481C315.097 432.979 312.064 446.324 309.031 459.822C308.121 463.613 307.363 467.405 306.605 471.196C305.846 474.988 305.088 478.931 304.027 482.722C303.875 483.177 303.117 483.025 303.268 482.57C303.723 479.082 304.633 475.746 305.391 472.409Z" fill="#263238"/>
<path d="M328.139 382.478C333.75 383.237 342.394 373.986 345.427 366.858C345.579 366.403 344.518 361.55 343.304 355.484C342.546 351.844 341.939 347.749 341.636 344.109C341.636 343.351 339.058 345.019 339.058 345.019L334.357 346.687L318.736 352.147C318.736 352.147 321.769 359.73 322.376 366.251C322.376 366.858 322.376 367.313 322.376 367.768C322.376 367.768 322.376 367.919 322.376 368.071C322.072 370.953 322.679 381.72 328.139 382.478Z" fill="#F7A9A0"/>
<path d="M322.224 367.616C322.224 367.616 322.224 367.767 322.224 367.919C322.982 367.919 323.74 367.919 324.65 367.767C340.423 365.948 340.423 345.625 340.423 345.625L334.205 346.535L318.584 351.995C318.584 351.995 321.617 359.578 322.224 366.099C322.376 366.706 322.376 367.161 322.224 367.616Z" fill="#263238"/>
<path d="M338.755 314.385C343.001 321.968 343.608 346.536 338.906 353.057C332.082 362.46 318.433 366.1 309.788 357.304C301.447 348.811 301.144 316.811 306.755 310.745C314.793 301.494 332.537 303.011 338.755 314.385Z" fill="#F7A9A0"/>
<path d="M318.432 334.708C318.584 336.528 318.887 338.348 320.404 338.954V339.106C318.432 338.803 318.129 336.224 318.432 334.708Z" fill="#263238"/>
<path d="M319.797 332.887C322.375 332.584 322.83 337.892 320.404 338.195C317.977 338.499 317.522 333.039 319.797 332.887Z" fill="#263238"/>
<path d="M308.878 335.615L308.726 335.767C308.878 337.435 308.878 339.255 307.361 340.013V340.165C309.181 339.71 309.333 337.132 308.878 335.615Z" fill="#263238"/>
<path d="M307.209 333.947C304.479 333.947 304.782 339.255 307.209 339.255C309.635 339.255 309.484 333.947 307.209 333.947Z" fill="#263238"/>
<path d="M321.769 330.307C321.011 330.156 320.404 330.004 319.646 329.701C318.888 329.398 318.129 329.398 317.674 328.639C317.371 328.336 317.371 327.578 317.826 327.274C318.584 326.516 319.646 326.516 320.556 326.819C321.617 327.123 322.376 327.578 322.982 328.488C323.589 329.246 322.679 330.459 321.769 330.307Z" fill="#263238"/>
<path d="M304.934 331.369C305.693 331.217 306.299 330.914 307.058 330.61C307.816 330.307 308.574 330.155 309.029 329.549C309.332 329.246 309.181 328.487 308.877 328.184C308.119 327.426 307.058 327.577 305.996 327.881C304.934 328.184 304.176 328.639 303.569 329.549C303.115 330.61 304.024 331.672 304.934 331.369Z" fill="#263238"/>
<path d="M320.252 349.265C319.949 349.72 319.494 350.175 318.887 350.326C318.281 350.478 317.674 350.175 317.067 350.023C317.067 350.023 316.916 350.023 317.067 350.175C317.522 350.781 318.432 351.085 319.191 350.933C319.949 350.781 320.252 350.023 320.404 349.416C320.404 349.265 320.404 349.113 320.252 349.265Z" fill="#263238"/>
<path d="M318.888 345.017C318.129 346.534 316.765 347.444 315.248 347.747C314.641 347.899 313.883 348.05 313.276 348.05C313.125 348.05 312.973 348.05 312.821 348.05C312.67 348.05 312.518 348.05 312.518 348.05C312.366 348.05 312.215 347.899 312.215 347.747V347.595V347.444C312.063 346.231 312.063 344.259 312.063 344.259C311.608 344.562 309.333 345.776 309.333 345.017C309.333 339.558 309.182 333.34 310.395 327.88C310.395 327.728 310.698 327.728 310.698 327.88C311.002 333.188 310.243 338.496 310.395 343.804C311.153 343.501 312.366 342.894 312.973 342.742C313.125 342.742 312.973 346.534 312.973 346.989C315.096 347.141 316.613 346.382 318.584 344.714C318.888 344.714 319.039 344.866 318.888 345.017Z" fill="#263238"/>
<path d="M305.542 318.934C314.035 323.787 324.196 314.536 324.196 314.536C327.229 320.602 333.447 319.237 333.447 319.237C333.447 319.237 336.177 332.583 339.665 332.28C345.125 331.825 345.276 313.171 343.153 309.683C341.181 306.195 336.48 305.588 336.48 305.588C336.48 305.588 335.873 302.858 332.385 300.584C328.442 298.005 316.006 303.01 316.006 303.01C316.006 303.01 314.945 300.735 312.367 298.915C310.698 297.702 308.727 298.157 307.514 299.825C308.272 300.735 308.727 301.797 309.03 303.01C309.94 306.953 306.755 307.105 306.452 303.617C306.3 301.948 306.755 300.735 307.362 299.825C305.542 297.55 302.964 297.095 301.447 298.46C299.021 300.887 298.566 314.839 305.542 318.934Z" fill="#263238"/>
<path d="M337.694 334.556C337.694 334.556 341.637 325.912 345.428 327.125C349.22 328.338 347.4 340.319 343.609 342.594C339.817 344.869 337.694 341.381 337.694 341.381V334.556Z" fill="#F7A9A0"/>
<path d="M344.821 330.613C342.243 332.433 341.182 335.314 340.727 338.347C341.333 337.134 342.395 336.376 344.063 337.134C344.215 337.134 344.063 337.286 344.063 337.286C342.85 337.286 342.092 337.589 341.485 338.651C341.03 339.409 340.878 340.319 340.575 341.229C340.423 341.532 339.968 341.532 339.968 341.077C339.058 337.286 340.878 331.674 344.821 330.613Z" fill="#263238"/>
<path d="M322.225 367.919L327.382 380.658L344.974 363.672L349.675 369.435C349.675 369.435 332.083 396.582 332.083 395.368L326.775 383.388L318.282 391.425L319.495 370.648L322.225 367.919Z" fill="#FFC727"/>
<path d="M318.282 381.112C318.585 377.624 318.888 374.288 319.343 370.8C319.343 370.648 319.495 370.648 319.647 370.8C320.253 374.136 318.888 387.178 318.888 390.363C319.192 390.06 326.623 383.387 326.774 383.387C327.988 385.359 331.931 394.003 332.082 394.913C334.812 390.667 346.642 373.529 349.826 369.435C349.978 369.283 350.13 369.435 349.978 369.586C347.551 374.136 332.386 396.581 332.082 396.581C331.931 396.733 327.078 385.814 326.471 383.842C325.258 385.359 317.675 392.941 317.675 392.335C317.675 388.847 317.978 384.449 318.282 381.112Z" fill="#263238"/>
<path d="M252.917 459.822H191.345L179.667 372.771H241.24L252.917 459.822Z" fill="#8C8C8B"/>
<path d="M249.884 459.822H188.312L176.634 372.771H238.207L249.884 459.822Z" fill="#8C8C8B"/>
<path d="M207.268 412.05C207.572 415.386 210.453 417.964 213.79 417.964C217.126 417.964 219.553 415.234 219.249 412.05C218.946 408.713 216.064 406.135 212.728 406.135C209.392 406.135 206.965 408.713 207.268 412.05Z" fill="white"/>
<path d="M363.627 392.185C366.509 432.829 359.381 460.734 352.253 463.615C332.993 471.653 274.453 476.203 260.956 474.686C255.648 474.08 259.136 430.554 264.747 430.706C278.7 431.161 329.96 431.464 330.566 431.161C334.964 429.038 335.116 415.54 345.125 386.725C353.618 363.522 362.566 375.654 363.627 392.185Z" fill="#F7A9A0"/>
<path d="M220.159 422.214C217.581 425.702 220.159 429.342 220.159 429.342C220.159 429.342 216.823 430.555 215.306 433.437C213.638 436.925 218.188 441.019 218.188 441.019C218.188 441.019 215.155 442.839 213.79 446.176C212.425 449.664 216.52 454.517 216.52 454.517C216.52 454.517 214.548 457.853 215.61 461.493C216.671 465.588 226.681 470.593 232.747 472.564C238.662 474.536 257.467 474.232 261.107 474.687L273.694 436.318C273.694 436.318 249.277 420.091 241.998 418.878C235.78 417.968 223.041 418.271 220.159 422.214Z" fill="#F7A9A0"/>
<path d="M220.614 428.886C227.439 428.431 234.112 429.948 240.784 431.161C240.936 431.161 240.936 431.464 240.784 431.464C234.112 430.251 227.287 430.251 220.614 429.189C220.311 429.189 220.311 428.886 220.614 428.886Z" fill="#263238"/>
<path d="M218.491 440.714C220.008 440.714 221.676 441.169 223.192 441.472C224.861 441.776 226.377 442.231 228.045 442.686C231.23 443.596 234.415 444.506 237.6 445.567C237.751 445.567 237.751 445.87 237.6 445.87C234.415 444.96 231.23 444.202 227.894 443.444C226.226 443.141 224.709 442.686 223.041 442.382C221.524 442.079 219.856 441.927 218.491 441.169C218.188 441.017 218.188 440.714 218.491 440.714Z" fill="#263238"/>
<path d="M216.671 454.82C218.036 454.668 219.553 455.275 220.766 455.73C222.282 456.185 223.647 456.64 225.164 456.943C228.045 457.701 230.927 458.611 233.96 459.218C234.112 459.218 234.112 459.521 233.96 459.521C230.927 458.763 227.894 458.156 225.012 457.398C223.496 457.095 222.131 456.64 220.614 456.336C219.401 455.881 217.733 455.73 216.671 454.82Z" fill="#263238"/>
<path d="M270.358 428.734V477.568C270.358 477.568 271.723 477.568 274.301 477.416C274.604 477.416 275.059 477.416 275.514 477.416C275.969 477.416 276.424 477.416 276.879 477.416C277.789 477.416 278.851 477.265 280.064 477.265C280.216 477.265 280.519 477.265 280.671 477.265C282.036 477.113 283.552 477.113 285.069 476.961C285.372 476.961 285.827 476.961 286.282 476.961C287.647 476.81 289.163 476.81 290.68 476.658C290.832 476.658 291.135 476.658 291.287 476.658C292.652 476.506 294.168 476.506 295.685 476.355C295.988 476.355 296.443 476.355 296.898 476.203C298.415 476.051 299.779 475.9 301.296 475.9C301.448 475.9 301.751 475.9 301.903 475.9C303.419 475.748 304.784 475.596 306.301 475.445C306.756 475.445 307.059 475.445 307.514 475.293C309.031 475.141 310.547 474.99 311.912 474.838C312.064 474.838 312.367 474.838 312.519 474.838C314.035 474.686 315.552 474.535 316.917 474.383C317.372 474.383 317.675 474.231 318.13 474.231C319.646 474.08 321.163 473.928 322.528 473.625C322.68 473.625 322.983 473.625 323.135 473.473C323.893 473.322 324.651 473.322 325.258 473.17C326.016 473.018 326.774 473.018 327.533 472.867C327.988 472.867 328.291 472.715 328.746 472.715C328.898 472.715 329.049 472.715 329.201 472.715C330.566 472.563 331.931 472.26 333.296 471.957C333.447 471.957 333.751 471.957 333.902 471.805C335.419 471.502 336.935 471.198 338.3 470.895C338.755 470.743 339.059 470.743 339.514 470.592C341.03 470.288 342.547 469.833 343.912 469.53C344.063 469.53 344.367 469.378 344.518 469.378C346.035 468.923 347.4 468.468 348.765 468.014C348.765 468.014 348.916 468.014 349.068 468.014C349.523 467.862 349.826 467.71 350.281 467.559C350.736 467.407 351.191 467.104 351.646 466.952C352.859 466.345 353.921 465.739 354.679 465.132L354.831 464.98C354.983 464.829 355.134 464.677 355.286 464.525C355.741 463.919 356.347 463.312 356.802 462.554C356.954 462.402 357.106 462.251 357.106 461.947C357.864 460.734 358.471 459.217 359.229 457.549C359.381 457.246 359.532 456.791 359.684 456.336C359.684 456.184 359.836 456.033 359.836 455.881C360.291 454.668 360.594 453.303 361.049 451.938V451.786C361.049 451.635 361.2 451.331 361.2 451.18C361.504 449.815 361.959 448.298 362.262 446.63C362.414 446.327 362.414 445.872 362.414 445.417C362.717 444.052 363.02 442.535 363.172 441.019C363.172 440.867 363.324 440.564 363.324 440.412C363.627 438.895 363.779 437.53 363.93 436.014C363.93 435.711 364.082 435.256 364.082 434.801C364.234 433.284 364.385 431.768 364.537 430.251C364.537 430.099 364.537 429.796 364.537 429.644C364.689 428.128 364.84 426.611 364.992 425.095C364.992 424.791 364.992 424.336 365.144 423.881C365.295 422.668 365.295 421.607 365.447 420.393C365.447 420.09 365.447 419.787 365.447 419.332C365.447 419.18 365.447 418.877 365.447 418.725C365.599 417.208 365.599 415.692 365.599 414.175C365.599 413.72 365.599 413.417 365.599 412.962C365.599 411.445 365.75 409.929 365.75 408.564V407.957C365.75 406.441 365.75 404.924 365.75 403.559V402.346C365.75 400.829 365.75 399.313 365.599 397.948C365.599 397.796 365.599 397.493 365.599 397.341C365.599 395.825 365.447 394.308 365.447 392.943C365.447 392.488 365.447 392.185 365.295 391.73C365.295 390.972 365.144 390.365 365.144 389.607C365.144 388.697 364.992 387.939 364.84 387.18C364.84 387.029 364.84 386.725 364.689 386.574C364.537 385.512 364.385 384.602 364.234 383.844C364.082 383.237 363.93 382.782 363.779 382.176C363.627 381.721 363.627 381.417 363.475 380.962C362.869 379.143 362.262 377.626 361.352 376.564C361.2 376.413 361.049 376.109 360.897 375.958C360.746 375.806 360.594 375.654 360.594 375.503C360.291 375.048 359.836 374.745 359.381 374.441C358.016 373.38 356.499 372.925 354.983 373.076C354.831 373.076 354.528 373.228 354.376 373.228C352.859 373.531 351.494 374.441 349.978 375.958C349.826 376.109 349.675 376.261 349.371 376.564C349.22 376.716 348.916 377.019 348.765 377.323C347.855 378.384 347.096 379.598 346.338 381.114C346.186 381.417 345.883 381.872 345.731 382.327C345.277 383.237 344.822 384.147 344.367 385.209C344.215 385.664 343.912 386.119 343.76 386.725C343.76 386.725 343.76 386.725 343.76 386.877C343.608 387.029 343.608 387.332 343.457 387.484C343.002 388.697 342.547 389.91 342.243 391.275C342.243 391.427 342.092 391.73 342.092 391.882C341.94 392.337 341.94 392.64 341.788 393.095C341.333 394.612 340.878 396.128 340.423 397.493C340.423 397.645 340.272 397.948 340.272 398.1C339.969 399.01 339.665 399.92 339.514 400.829C339.362 401.436 339.21 402.043 339.059 402.498C338.907 402.953 338.755 403.256 338.755 403.711C338.604 404.014 338.604 404.318 338.452 404.621C338.149 405.834 337.694 407.047 337.39 408.261C337.39 408.412 337.239 408.716 337.239 408.867C336.784 410.384 336.329 411.9 335.874 413.265C335.722 413.72 335.57 414.024 335.57 414.479C335.115 415.995 334.661 417.512 334.206 418.877C334.206 418.877 334.206 418.877 334.206 419.028C334.206 419.18 334.054 419.483 334.054 419.635C333.902 420.09 333.751 420.393 333.751 420.697C333.296 421.91 332.992 422.971 332.537 424.033C332.386 424.488 332.234 424.791 332.082 425.246C331.324 427.369 330.566 428.886 330.111 429.796C329.959 430.099 329.807 430.251 329.656 430.403C329.504 430.554 329.353 430.554 329.353 430.554C329.201 430.554 328.746 430.554 328.139 430.554C327.078 430.554 325.561 430.554 323.741 430.403C323.59 430.403 323.286 430.403 323.135 430.403C322.528 430.403 321.921 430.403 321.163 430.403C320.405 430.403 319.495 430.403 318.737 430.403C318.433 430.403 317.978 430.403 317.523 430.403C316.158 430.403 314.642 430.403 313.125 430.251C312.974 430.251 312.67 430.251 312.519 430.251C311.154 430.251 309.637 430.251 308.121 430.099C307.817 430.099 307.362 430.099 306.907 430.099C305.391 430.099 303.874 429.948 302.509 429.948C302.358 429.948 302.054 429.948 301.903 429.948C300.386 429.948 298.869 429.948 297.505 429.796C297.353 429.796 297.05 429.796 296.898 429.796C296.746 429.796 296.443 429.796 296.291 429.796C294.775 429.796 293.258 429.796 291.893 429.644C291.742 429.644 291.438 429.644 291.287 429.644C289.77 429.644 288.254 429.644 286.889 429.493C286.434 429.493 286.13 429.493 285.675 429.493C284.159 429.493 282.642 429.493 281.277 429.341C281.126 429.341 280.822 429.341 280.671 429.341C279.002 429.341 277.486 429.189 276.273 429.189C275.818 429.189 275.514 429.189 275.059 429.189C271.875 428.886 270.358 428.734 270.358 428.734Z" fill="#FFC727"/>
<path opacity="0.2" d="M365.446 389.759V420.394C365.446 420.09 365.446 419.787 365.446 419.332C365.446 419.18 365.446 418.877 365.446 418.725C365.598 417.209 365.598 415.692 365.598 414.176C365.598 413.721 365.598 413.417 365.598 412.962C365.598 411.446 365.749 409.929 365.749 408.564V407.958C365.749 406.441 365.749 404.924 365.749 403.56V402.346C365.749 400.83 365.749 399.313 365.598 397.948C365.598 397.797 365.598 397.493 365.598 397.342C365.598 395.825 365.446 394.309 365.446 392.944C365.446 392.489 365.446 392.185 365.294 391.73C365.598 390.972 365.446 390.365 365.446 389.759Z" fill="white"/>
<path opacity="0.2" d="M354.831 373.228V464.677L354.983 464.525C355.134 464.374 355.286 464.222 355.438 464.07V373.076C355.134 373.228 354.983 373.228 354.831 373.228Z" fill="white"/>
<path opacity="0.2" d="M359.836 374.442V455.579C360.291 454.365 360.594 453 361.049 451.635V375.655C360.594 375.2 360.291 374.745 359.836 374.442Z" fill="white"/>
<path opacity="0.2" d="M349.22 377.322V467.71C349.675 467.558 349.978 467.406 350.433 467.255V376.109C350.282 376.261 350.13 376.412 349.827 376.716C349.523 376.867 349.372 377.019 349.22 377.322Z" fill="white"/>
<path opacity="0.2" d="M344.063 386.574V469.227C344.214 469.227 344.518 469.076 344.669 469.076V385.058C344.518 385.664 344.214 386.119 344.063 386.574Z" fill="white"/>
<path opacity="0.2" d="M333.447 420.544V471.653C333.599 471.653 333.902 471.653 334.054 471.501V418.724C334.054 418.724 334.054 418.724 334.054 418.876C334.054 419.028 333.902 419.331 333.902 419.483C333.599 419.786 333.447 420.089 333.447 420.544Z" fill="white"/>
<path opacity="0.2" d="M338.452 403.559V470.592C338.907 470.44 339.21 470.44 339.665 470.288V400.678C339.514 401.285 339.362 401.891 339.21 402.346C339.059 402.801 338.907 403.104 338.907 403.559H338.452Z" fill="white"/>
<path opacity="0.2" d="M327.684 430.25V472.563C328.139 472.563 328.442 472.411 328.897 472.411V430.25C328.746 430.25 328.291 430.25 327.684 430.25Z" fill="white"/>
<path opacity="0.2" d="M322.679 430.1V473.17C322.831 473.17 323.134 473.17 323.286 473.019V429.948H322.679V430.1Z" fill="white"/>
<path opacity="0.2" d="M312.063 429.797V474.384C312.215 474.384 312.518 474.384 312.67 474.384V429.797C312.366 429.949 312.215 429.949 312.063 429.797Z" fill="white"/>
<path opacity="0.2" d="M317.068 429.948V473.929C317.523 473.929 317.826 473.777 318.281 473.777V429.948C317.826 429.948 317.523 429.948 317.068 429.948Z" fill="white"/>
<path opacity="0.2" d="M306.453 429.797V475.142C306.908 475.142 307.211 475.142 307.666 474.991V429.797C307.211 429.797 306.756 429.797 306.453 429.797Z" fill="white"/>
<path opacity="0.2" d="M301.296 429.644V475.596C301.448 475.596 301.751 475.596 301.903 475.596V429.644C301.751 429.644 301.448 429.644 301.296 429.644Z" fill="white"/>
<path opacity="0.2" d="M290.68 429.34V476.505C290.832 476.505 291.135 476.505 291.287 476.505V429.492C290.983 429.34 290.832 429.34 290.68 429.34Z" fill="white"/>
<path opacity="0.2" d="M295.685 429.493V476.052C295.988 476.052 296.443 476.052 296.898 475.9V429.493H296.291C296.139 429.493 295.836 429.493 295.685 429.493Z" fill="white"/>
<path opacity="0.2" d="M285.069 429.19V476.81C285.372 476.81 285.827 476.81 286.282 476.81V429.19C285.827 429.19 285.372 429.19 285.069 429.19Z" fill="white"/>
<path opacity="0.2" d="M279.913 429.039V477.114C280.064 477.114 280.368 477.114 280.519 477.114V429.039C280.368 429.039 280.064 429.039 279.913 429.039Z" fill="white"/>
<path opacity="0.2" d="M274.301 428.885V477.415C274.604 477.415 275.059 477.415 275.514 477.415V429.037C275.059 428.885 274.604 428.885 274.301 428.885Z" fill="white"/>
<path opacity="0.2" d="M270.358 472.26V472.866H325.409C326.167 472.715 326.926 472.715 327.684 472.563C328.139 472.563 328.442 472.411 328.897 472.411C329.049 472.411 329.201 472.411 329.352 472.411H270.358V472.26Z" fill="white"/>
<path opacity="0.2" d="M270.358 477.265V477.568C270.358 477.568 271.723 477.568 274.301 477.417C274.605 477.417 275.06 477.417 275.514 477.417C275.969 477.417 276.424 477.417 276.879 477.417H270.358V477.265Z" fill="white"/>
<path opacity="0.2" d="M270.358 466.65V467.863H348.917C348.917 467.863 349.068 467.863 349.22 467.863C349.675 467.711 349.978 467.56 350.433 467.408C350.888 467.257 351.343 466.953 351.798 466.802H270.358V466.65Z" fill="white"/>
<path opacity="0.2" d="M270.358 461.492V462.099H356.803C356.954 461.947 357.106 461.796 357.106 461.492H270.358Z" fill="white"/>
<path opacity="0.2" d="M270.357 450.876V451.483H361.048C361.048 451.331 361.2 451.028 361.2 450.876H270.357Z" fill="white"/>
<path opacity="0.2" d="M270.357 455.88V457.094H359.228C359.38 456.79 359.532 456.335 359.683 455.88H270.357Z" fill="white"/>
<path opacity="0.2" d="M270.358 445.264V446.478H362.111C362.262 446.174 362.262 445.719 362.262 445.264H270.358Z" fill="white"/>
<path opacity="0.2" d="M270.358 440.11V440.716H363.172C363.172 440.565 363.324 440.262 363.324 440.11H270.358Z" fill="white"/>
<path opacity="0.2" d="M329.808 429.493C329.656 429.796 329.504 429.948 329.353 430.1H364.689C364.689 429.948 364.689 429.645 364.689 429.493H329.808Z" fill="white"/>
<path opacity="0.2" d="M270.358 429.493V430.1H320.708C319.95 430.1 319.04 430.1 318.282 430.1C317.978 430.1 317.524 430.1 317.069 430.1C315.704 430.1 314.187 430.1 312.67 429.948C312.519 429.948 312.216 429.948 312.064 429.948C310.699 429.948 309.182 429.948 307.666 429.796C307.362 429.796 306.908 429.796 306.453 429.796C304.936 429.796 303.419 429.645 302.055 429.645C301.903 429.645 301.6 429.645 301.448 429.645C299.931 429.645 298.415 429.645 297.05 429.493H270.358Z" fill="white"/>
<path opacity="0.2" d="M270.359 434.497V435.711H363.931C363.931 435.407 364.083 434.952 364.083 434.497H270.359Z" fill="white"/>
<path opacity="0.2" d="M331.779 424.944H365.144C365.144 424.641 365.144 424.186 365.295 423.731H332.234C332.082 424.186 331.931 424.641 331.779 424.944Z" fill="white"/>
<path opacity="0.2" d="M333.751 419.331H365.447C365.447 419.179 365.447 418.876 365.447 418.724H333.902C333.902 419.028 333.902 419.179 333.751 419.331Z" fill="white"/>
<path opacity="0.2" d="M337.239 408.715H366.053V408.108H337.39C337.239 408.26 337.239 408.563 337.239 408.715Z" fill="white"/>
<path opacity="0.2" d="M335.418 414.328H365.749C365.749 413.873 365.749 413.569 365.749 413.115H335.721C335.57 413.569 335.57 413.873 335.418 414.328Z" fill="white"/>
<path opacity="0.2" d="M338.755 403.559H366.053V402.346H339.058C338.907 402.801 338.907 403.256 338.755 403.559Z" fill="white"/>
<path opacity="0.2" d="M340.423 397.948H365.902C365.902 397.797 365.902 397.493 365.902 397.342H340.575C340.575 397.645 340.423 397.797 340.423 397.948Z" fill="white"/>
<path opacity="0.2" d="M343.76 387.332H365.144C365.144 387.181 365.144 386.877 364.992 386.726H343.912C343.912 386.877 343.912 387.029 343.76 387.332Z" fill="white"/>
<path opacity="0.2" d="M341.939 392.943H365.749C365.749 392.488 365.749 392.185 365.598 391.73H342.243C342.243 392.185 342.091 392.488 341.939 392.943Z" fill="white"/>
<path opacity="0.2" d="M346.035 382.177H364.233C364.082 381.722 364.082 381.419 363.93 380.964H346.641C346.489 381.419 346.186 381.874 346.035 382.177Z" fill="white"/>
<path opacity="0.2" d="M349.826 376.566H361.958C361.807 376.414 361.655 376.111 361.504 375.959H350.433C350.129 376.263 349.978 376.414 349.826 376.566Z" fill="white"/>
<path d="M270.054 428.887C269.903 428.583 270.054 428.128 270.509 428.128C278.244 427.977 285.978 428.432 293.561 428.583C301.296 428.735 308.879 428.887 316.613 429.19C320.86 429.342 329.201 429.797 329.352 429.645C329.504 429.493 331.779 422.365 332.234 420.849C333.144 417.967 334.205 414.934 335.267 412.053C335.57 411.143 335.874 410.385 336.177 409.475C336.328 408.868 336.328 408.261 336.48 407.806C336.632 407.048 336.632 406.29 336.783 405.38C336.935 403.863 337.238 402.195 337.542 400.679C337.542 400.527 337.845 400.527 337.693 400.679C337.238 402.195 337.238 403.863 337.238 405.532C337.238 405.987 337.238 406.29 337.087 406.745C338.603 402.65 338.907 402.043 340.272 397.949C340.272 397.797 340.575 397.797 340.423 397.949C338.755 403.863 338.148 406.441 336.177 412.204C335.267 415.086 334.357 418.119 333.295 421.001C332.84 422.365 330.566 429.038 329.807 430.403C329.656 430.555 321.921 430.1 318.13 430.1C314.338 430.1 310.395 429.948 306.604 429.948C298.869 429.797 291.286 429.493 283.552 429.342C279.306 429.19 275.059 429.19 270.813 429.038C270.813 429.493 270.358 432.072 270.509 432.223C270.509 432.375 270.206 432.375 270.206 432.223C270.358 432.223 270.054 428.887 270.054 428.887Z" fill="#263238"/>
<path d="M279.002 432.678C279.002 432.527 279.154 432.527 279.306 432.678C279.761 436.015 279.912 439.503 280.064 442.991C280.216 446.479 280.367 450.119 280.519 453.607C280.822 460.583 281.126 467.711 280.974 474.839C280.974 475.142 280.519 475.142 280.519 474.839C279.761 467.863 279.609 460.886 279.457 453.91C279.306 450.422 279.154 446.934 279.154 443.446C279.002 439.806 278.851 436.166 279.002 432.678Z" fill="#263238"/>
<path d="M270.055 457.702C270.055 457.247 270.055 456.64 270.055 456.185C270.055 455.882 270.055 455.73 270.055 455.427C270.055 455.275 270.055 455.124 270.055 455.124C270.055 454.972 270.055 454.82 270.055 454.669C270.055 454.517 270.206 454.517 270.206 454.669C270.206 454.82 270.206 454.972 270.206 455.124V455.275C270.358 458.915 270.661 462.555 270.965 466.195C271.116 469.834 271.116 473.626 271.116 477.266C275.363 476.962 279.457 476.962 283.704 476.811C288.102 476.659 292.348 476.356 296.746 475.901C305.391 475.142 314.187 474.384 322.68 473.171C325.106 472.868 327.533 472.564 329.959 472.109C332.386 471.806 334.964 471.503 337.39 471.048C337.542 471.048 337.542 471.199 337.39 471.351C335.115 471.654 332.992 472.261 330.869 472.564C328.746 473.019 326.623 473.322 324.499 473.626C320.253 474.232 315.855 474.839 311.609 475.446C302.964 476.507 294.32 477.266 285.675 477.721C283.249 477.872 280.671 478.024 278.244 478.024C275.818 478.176 273.391 478.327 270.965 478.175C270.661 478.175 270.358 478.024 270.358 477.721C270.358 473.929 270.206 469.986 270.055 466.195C270.055 464.375 270.055 462.403 270.055 460.583C270.055 459.673 270.055 458.612 270.055 457.702Z" fill="#263238"/>
<path d="M179.97 397.794C176.179 402.799 167.231 408.259 165.563 412.657C164.198 416.6 167.231 418.875 167.231 418.875C167.231 418.875 162.227 420.088 161.468 424.334C161.013 426.458 164.198 429.036 164.198 429.036C164.198 429.036 160.255 430.249 159.8 434.04C159.497 437.074 162.682 439.197 162.682 439.197C162.682 439.197 159.345 442.078 160.103 445.263C161.468 451.784 186.947 457.396 193.013 448.903C195.894 444.96 189.525 443.898 189.525 443.898C189.525 443.898 198.928 443.14 200.293 437.984C201.657 432.676 193.316 431.917 193.316 431.917C193.316 431.917 202.416 431.159 203.326 425.548C204.084 419.785 195.743 420.24 195.743 420.24C195.743 420.24 202.264 417.662 201.961 413.263C201.354 405.984 187.098 412.202 181.79 409.624L179.97 397.794Z" fill="#F7A9A0"/>
<path d="M163.288 439.5C163.137 439.5 163.137 439.652 163.288 439.5C171.174 443.595 181.184 445.415 189.98 443.899C190.283 443.899 190.283 443.292 189.98 443.292C180.577 443.14 172.236 442.23 163.288 439.5Z" fill="#263238"/>
<path d="M164.198 429.035C164.046 429.035 164.046 429.187 164.198 429.187C172.388 433.13 183.762 434.95 193.62 432.068C193.923 431.917 194.226 431.462 193.771 431.613C186.947 432.978 172.236 431.613 164.198 429.035Z" fill="#263238"/>
<path d="M196.349 419.785C186.643 422.211 177.241 421.301 167.686 419.026C167.534 419.026 167.534 419.178 167.686 419.178C172.084 421.605 178.302 422.363 183.307 422.666C188.008 422.818 192.255 422.211 196.501 420.088C196.653 419.936 196.501 419.633 196.349 419.785Z" fill="#263238"/>
<path d="M0.10434 596.468C1.3176 599.956 63.8003 677.453 68.0467 678.969C69.7149 679.576 81.5441 671.083 95.4965 660.467C98.5297 658.192 101.563 655.766 104.748 653.339C125.221 637.567 146.453 620.278 146.453 620.278L104.899 568.26L64.2552 602.686L55.3074 610.269C55.3074 610.269 18.1515 591.312 13.2985 590.098C8.59714 589.188 -1.10892 593.131 0.10434 596.468Z" fill="#F7A9A0"/>
<path d="M0.104645 596.468C1.3179 599.956 63.8006 677.453 68.047 678.97C70.0185 679.576 87.0041 666.989 104.748 653.34L64.2556 602.686L55.3078 610.269C55.3078 610.269 18.1518 591.312 13.2988 590.099C8.59745 589.189 -1.10861 593.132 0.104645 596.468Z" fill="white"/>
<path d="M0.103851 596.468C1.31711 599.956 63.7998 677.453 68.0462 678.969C69.7144 679.576 81.5436 671.083 95.496 660.467L55.4586 610.269C55.4586 610.269 18.3027 591.311 13.4497 590.098C8.59666 589.188 -1.10941 593.131 0.103851 596.468Z" fill="#FFC727"/>
<path d="M4.19761 595.104C14.9653 607.843 57.2775 660.316 66.9836 673.662C67.1352 673.814 66.9836 673.814 66.8319 673.662C55.9126 661.226 14.0553 608.449 3.89428 595.104C3.74262 594.952 3.8943 594.8 4.19761 595.104Z" fill="#263238"/>
<path d="M20.2736 592.981C22.8518 596.014 23.9134 600.109 23.3068 603.293C22.8518 606.327 21.4869 609.663 18.7571 611.786C18.6054 611.786 18.6054 611.634 18.6054 611.634C23.1551 606.781 23.9134 598.592 20.122 593.132C19.9703 592.981 20.122 592.981 20.2736 592.981Z" fill="#263238"/>
<path d="M50.1498 606.326C54.3962 611.483 57.4294 618.914 55.7611 625.587C55.7611 625.89 55.3061 625.738 55.3061 625.587C53.9412 618.914 52.1214 612.999 49.3915 606.781C49.2399 606.326 49.8465 606.023 50.1498 606.326Z" fill="#263238"/>
<path d="M45.2972 603.598C49.5436 608.754 52.5767 616.185 50.9085 622.858C50.9085 623.161 50.4535 623.01 50.4535 622.858C49.0886 616.185 47.2687 610.271 44.5389 604.053C44.3873 603.598 44.9939 603.294 45.2972 603.598Z" fill="#263238"/>
<path d="M40.4436 600.866C44.69 606.023 47.7231 613.454 46.0549 620.127C46.0549 620.43 45.5999 620.278 45.5999 620.127C44.235 613.454 42.4151 607.539 39.6853 601.321C39.6853 600.866 40.1403 600.563 40.4436 600.866Z" fill="#263238"/>
<path d="M35.7425 598.137C39.9889 603.293 43.022 610.724 41.3538 617.397C41.3538 617.7 40.8988 617.549 40.8988 617.397C39.5339 610.724 37.714 604.81 34.9842 598.592C34.8325 598.137 35.4392 597.682 35.7425 598.137Z" fill="#263238"/>
<path d="M76.6901 660.468C81.3914 666.382 72.292 673.662 67.5906 667.747C62.8893 661.984 71.9887 654.553 76.6901 660.468Z" fill="#263238"/>
<path d="M59.5525 589.643C63.7988 590.553 64.4055 595.558 63.4955 599.046C61.979 604.657 58.1875 610.572 53.9411 614.515C53.7895 614.667 53.7895 614.515 53.6378 614.515C53.1829 614.667 52.5762 614.515 52.4246 613.908C51.9696 608.145 50.908 602.079 52.2729 596.316C53.0312 592.828 55.4577 588.733 59.5525 589.643ZM53.4862 604.809C53.6378 607.69 53.9411 610.42 53.9411 613.302C55.761 610.269 57.7326 607.387 59.2491 604.202C60.0074 602.686 60.7657 601.018 61.2207 599.501C61.979 596.923 62.2823 588.43 56.216 592.373C52.8795 594.648 53.3345 601.473 53.4862 604.809Z" fill="#263238"/>
<path d="M62.2831 628.924C57.885 624.98 55.4585 619.217 52.577 614.213C52.2737 613.758 52.7287 613.151 53.1836 613C53.1836 612.848 53.1836 612.848 53.3353 612.848C59.0983 613.758 65.4678 616.488 69.8659 620.279C72.5957 622.554 75.0223 627.104 71.8375 630.137C69.1076 633.17 64.8612 631.198 62.2831 628.924ZM67.8944 629.682C75.1739 629.682 70.1692 622.554 68.046 621.037C66.6811 619.976 65.1645 619.066 63.7996 618.308C60.7665 616.488 57.43 615.274 54.2453 613.758C55.7618 616.184 57.1267 618.611 58.6433 621.037C60.3115 623.767 63.7996 629.682 67.8944 629.682Z" fill="#263238"/>
<path d="M66.5304 594.951L109.753 653.339L255.95 552.033L270.054 542.326C270.054 542.326 273.997 545.056 280.063 548.393C288.404 552.942 300.689 558.857 311.456 560.374C329.655 563.103 359.835 562.8 375.152 542.326C388.043 525.038 379.247 493.948 379.247 493.948L358.015 491.521C358.015 491.521 313.883 454.82 283.4 453.607C270.357 453.152 251.552 462.858 234.111 473.171C216.671 483.332 66.5304 594.951 66.5304 594.951Z" fill="#455A64"/>
<path d="M270.054 542.175C270.054 542.175 273.997 544.905 280.063 548.242C290.679 535.503 313.124 512.451 313.882 511.692L270.054 542.175Z" fill="#263238"/>
<path d="M343.759 480.906C346.64 482.877 349.37 485 352.1 486.972C354.83 488.943 357.711 490.763 360.29 492.886C362.868 495.01 365.446 497.436 367.872 499.711C369.086 500.924 370.299 501.986 371.36 503.199C372.574 504.412 373.787 505.474 374.697 506.839C374.849 506.991 374.545 507.142 374.545 506.99C373.18 506.081 371.967 505.019 370.754 503.957C369.389 502.896 368.176 501.683 366.811 500.621C364.233 498.498 361.654 496.375 359.228 494.251C356.65 492.128 354.375 489.702 351.948 487.578C349.37 485.304 346.489 483.18 343.759 480.906Z" fill="#263238"/>
<path d="M76.691 592.829C79.5725 595.862 82.1507 599.198 84.7289 602.383C87.307 605.568 90.0368 608.753 92.615 612.089C97.7713 618.61 103.079 624.98 108.084 631.653C110.814 635.293 113.695 638.932 116.273 642.572C116.425 642.724 116.122 642.875 115.97 642.724C110.359 636.506 105.203 629.985 100.046 623.615C94.8898 617.094 89.7335 610.572 84.5772 604.051C81.8474 600.411 78.9659 596.923 76.3877 593.132C76.3877 592.98 76.5394 592.829 76.691 592.829Z" fill="#263238"/>
<path d="M192.709 501.683C197.865 495.768 219.855 480.148 233.959 473.02C234.111 473.02 234.263 473.171 234.111 473.171C220.007 482.119 196.955 499.256 192.86 501.835C192.709 502.138 192.557 501.835 192.709 501.683Z" fill="#263238"/>
</svg>
