<svg width="348" height="643" viewBox="0 0 348 643" fill="none" xmlns="http://www.w3.org/2000/svg">
<path d="M345.753 637.095C341.766 638.384 228.175 636.916 223.89 634.099C222.243 633.068 221.489 616.503 221.152 596.467C221.152 596.249 221.152 596.05 221.152 595.832C221.073 591.706 221.013 587.441 221.013 583.136C221.013 582.541 221.013 581.946 220.993 581.35L226.508 522.432L302.487 523.186L294.988 581.569L294.909 583.89L294.453 595.971L294.413 597.221C294.413 597.221 337.64 617.237 342.024 620.808C346.388 624.359 349.741 635.825 345.753 637.095Z" fill="#F7A9A0"/>
<path d="M345.753 637.094C341.766 638.384 228.175 636.916 223.89 634.099C222.243 633.067 221.489 616.503 221.152 596.467C221.152 596.248 221.152 596.05 221.152 595.832C221.073 591.706 221.013 587.44 221.013 583.136C221.013 582.541 221.013 581.945 220.993 581.35L294.988 581.549L294.909 583.87L294.453 595.951L294.413 597.201C294.413 597.201 337.64 617.217 342.024 620.788C346.388 624.359 349.741 635.825 345.753 637.094Z" fill="#EBEBEB"/>
<path d="M345.773 637.094C343.73 637.749 312.862 637.69 282.689 637.075C276.619 636.956 270.588 636.817 264.835 636.658C243.331 636.063 225.556 635.19 223.89 634.099C222.263 633.067 221.509 616.959 221.172 597.3C221.172 597.022 221.152 596.744 221.152 596.467C221.152 596.248 221.152 596.03 221.132 595.832H221.212L294.413 595.971L294.374 597.22C294.374 597.22 337.6 617.217 341.984 620.808C346.388 624.359 349.741 635.825 345.773 637.094Z" fill="#70D943"/>
<path d="M344.523 632.671C325.38 631.956 248.111 630.865 229.127 631.599C228.968 631.599 228.968 631.718 229.127 631.718C248.092 632.849 325.36 633.305 344.523 632.968C344.92 632.968 344.94 632.69 344.523 632.671Z" fill="#263238"/>
<path d="M302.606 596.268C295.088 594.76 285.863 595.792 280.031 601.089C279.813 601.287 280.09 601.604 280.348 601.545C287.807 599.303 294.77 597.875 302.567 597.22C303.122 597.181 303.142 596.387 302.606 596.268Z" fill="#263238"/>
<path d="M308.001 599.621C300.483 598.113 291.258 599.145 285.426 604.442C285.208 604.64 285.505 604.957 285.743 604.898C293.202 602.656 300.166 601.228 307.962 600.573C308.517 600.534 308.537 599.74 308.001 599.621Z" fill="#263238"/>
<path d="M313.398 602.973C305.879 601.465 296.655 602.497 290.822 607.794C290.604 607.992 290.882 608.309 291.14 608.25C298.599 606.008 305.562 604.58 313.358 603.925C313.914 603.885 313.933 603.072 313.398 602.973Z" fill="#263238"/>
<path d="M282.689 637.075C276.619 636.956 270.588 636.817 264.835 636.658C243.331 636.063 225.556 635.19 223.89 634.099C222.263 633.067 221.509 616.959 221.172 597.3C221.172 597.022 221.152 596.744 221.152 596.467C221.152 596.248 221.152 596.03 221.132 595.832H221.212C231.27 602.854 266.621 626.382 282.689 637.075Z" fill="#263238"/>
<path d="M299.432 596.208H217.641C217.641 596.208 234.106 405.13 233.471 401.797C232.658 397.532 227.818 378.19 221.39 352.917C219.367 345.002 217.204 336.531 214.943 327.743C208.853 303.977 202.128 277.989 196.256 255.394C187.468 221.531 180.604 195.226 180.604 195.226H249.937C249.937 195.226 258.011 220.837 268.207 254.164C284.792 308.321 306.97 382.872 309.172 400.984C312.704 430.264 299.432 596.208 299.432 596.208Z" fill="#455A64"/>
<path d="M295.822 582.262C283.324 582.004 286.914 581.905 274.417 581.786C268.307 581.727 228.115 581.37 222.402 582.322C222.283 582.342 222.283 582.56 222.402 582.58C228.115 583.532 268.307 583.175 274.417 583.115C286.914 582.996 283.324 582.897 295.822 582.639C296.06 582.619 296.06 582.262 295.822 582.262Z" fill="#263238"/>
<path d="M248.865 390.133C246.187 378.31 242.18 366.724 238.688 355.119C231.606 331.532 224.445 307.965 217.283 284.397C213.713 272.614 210.122 260.83 206.492 249.066C204.667 243.115 202.842 237.183 200.977 231.252C199.152 225.439 197.089 219.686 195.442 213.834C194.768 211.454 194.41 212.763 195.263 215.778C196.989 221.888 198.695 227.979 200.481 234.069C204.012 246.13 207.563 258.172 211.114 270.213C218.196 294.177 225.397 318.122 232.578 342.066C236.169 354.068 239.799 366.07 243.41 378.072C245.136 383.805 246.822 389.577 247.834 395.489C248.885 401.659 248.945 407.888 248.548 414.117C247.754 426.634 246.306 439.132 245.156 451.61C244.005 464.128 242.835 476.646 241.684 489.143C239.383 514.04 237.082 538.956 234.84 563.853C234.562 567.007 234.284 570.161 234.027 573.335C233.947 574.386 235.534 574.307 235.653 573.295C238.351 548.677 240.414 523.959 242.735 499.3C245.037 474.761 247.338 450.222 249.639 425.682C250.214 419.513 250.869 413.343 250.869 407.154C250.849 401.401 250.135 395.727 248.865 390.133Z" fill="#263238"/>
<path d="M242.061 195.226C237.24 232.462 228.075 302.271 221.39 352.937C205.758 291.559 180.604 195.226 180.604 195.226H242.061Z" fill="#263238"/>
<path d="M259.102 638.184C255.114 639.493 141.523 638.422 137.238 635.644C135.592 634.613 134.778 618.048 134.382 598.012C134.382 597.794 134.382 597.596 134.382 597.377C134.282 593.251 134.223 588.986 134.203 584.681C134.203 584.086 134.203 583.491 134.183 582.896C133.925 553.972 136.008 523.977 136.008 523.977L210.261 524.454L208.198 582.836L208.119 585.157L207.702 597.238L207.662 598.488C207.662 598.488 250.968 618.346 255.372 621.897C259.677 625.448 263.069 636.894 259.102 638.184Z" fill="#F7A9A0"/>
<path d="M259.102 638.184C255.115 639.493 141.523 638.422 137.238 635.644C135.592 634.613 134.779 618.048 134.382 598.012C134.382 597.794 134.382 597.596 134.382 597.377C134.283 593.251 134.223 588.986 134.203 584.681C134.203 584.086 134.203 583.491 134.183 582.896L208.178 582.836L208.099 585.157L207.683 597.238L207.643 598.488C207.643 598.488 250.949 618.346 255.353 621.897C259.677 625.448 263.07 636.894 259.102 638.184Z" fill="#EBEBEB"/>
<path d="M259.102 638.184C255.114 639.493 141.523 638.422 137.238 635.644C135.592 634.613 134.778 618.048 134.381 598.012C134.381 597.794 134.381 597.595 134.381 597.377L207.682 597.238L207.642 598.488C207.642 598.488 250.948 618.346 255.352 621.897C259.677 625.448 263.069 636.894 259.102 638.184Z" fill="#70D943"/>
<path d="M257.852 633.76C238.708 633.106 161.44 632.312 142.455 633.125C142.296 633.125 142.296 633.244 142.455 633.244C161.42 634.296 238.688 634.494 257.852 634.078C258.248 634.078 258.248 633.78 257.852 633.76Z" fill="#263238"/>
<path d="M215.795 597.537C208.277 596.069 199.052 597.14 193.24 602.437C193.022 602.635 193.319 602.953 193.557 602.893C201.016 600.612 207.959 599.184 215.756 598.489C216.311 598.43 216.331 597.636 215.795 597.537Z" fill="#263238"/>
<path d="M221.211 600.85C213.693 599.382 204.468 600.453 198.656 605.75C198.438 605.948 198.735 606.265 198.973 606.206C206.432 603.924 213.395 602.496 221.172 601.802C221.707 601.762 221.747 600.969 221.211 600.85Z" fill="#263238"/>
<path d="M226.607 604.182C219.089 602.714 209.864 603.785 204.052 609.082C203.834 609.281 204.131 609.598 204.369 609.538C211.828 607.257 218.771 605.829 226.568 605.134C227.123 605.095 227.163 604.301 226.607 604.182Z" fill="#263238"/>
<path d="M247.695 195.226C247.695 195.226 246.088 228.395 238.51 254.66C237.895 256.822 237.24 258.965 236.526 261.028C236.526 261.028 228.611 263.904 216.549 271.304C216.549 271.304 215.756 297.986 214.943 327.762C214.05 361.03 213.137 398.147 213.336 406.022C214.03 435.481 209.646 597.417 209.646 597.417L127.855 597.755C127.855 597.755 142.634 416.913 142.535 406.122C142.376 388.783 146.502 312.13 149.676 256.227C151.62 221.789 153.227 195.246 153.227 195.246H247.695V195.226Z" fill="#455A64"/>
<path d="M206.829 582.857C194.331 582.658 197.922 582.539 185.424 582.46C179.314 582.42 139.122 582.242 133.409 583.214C133.29 583.234 133.29 583.452 133.409 583.472C139.122 584.384 179.314 583.868 185.424 583.789C197.922 583.611 194.331 583.531 206.829 583.214C207.067 583.214 207.067 582.877 206.829 582.857Z" fill="#263238"/>
<path d="M160.091 207.069C158.583 252.696 156.996 298.343 154.953 343.95C152.909 389.716 150.152 435.462 146.323 481.128C144.181 506.64 142.157 542.507 139.42 567.959C139.4 568.137 139.658 568.197 139.678 568.018C145.629 522.748 148.962 466.786 151.878 421.238C154.814 375.691 156.798 330.064 158.345 284.456C159.218 258.647 159.892 232.839 160.666 207.049C160.666 206.672 160.111 206.712 160.091 207.069Z" fill="#263238"/>
<path d="M239.919 259.045C231.785 262.279 223.969 266.703 216.53 271.285C216.232 271.464 216.45 271.92 216.768 271.761C224.663 267.932 232.717 264.243 240.375 259.978C241.01 259.66 240.553 258.807 239.919 259.045Z" fill="#263238"/>
<path d="M240.374 230.914C239.839 233.83 239.124 236.707 238.509 239.583C237.914 242.301 237.478 245.059 236.764 247.737C236.069 250.335 234.958 252.716 232.955 254.581C231.884 255.573 230.713 256.445 229.582 257.358C228.967 257.854 228.313 258.31 227.678 258.806C227.757 258.429 227.837 258.032 227.896 257.636C228.095 256.525 228.273 255.434 228.452 254.323C228.868 251.883 229.245 249.423 229.622 246.963C230.356 242.142 231.031 237.262 232.042 232.481C232.082 232.283 231.784 232.204 231.745 232.402C230.535 237.143 229.225 241.825 228.174 246.586C227.658 248.927 225.833 260.492 225.754 261.306C225.674 262.159 225.595 262.992 225.575 263.845C225.555 264.678 225.377 265.61 225.575 266.444C225.635 266.662 225.873 266.622 225.972 266.483C225.972 266.483 225.972 266.483 225.992 266.483C226.408 265.749 226.508 264.777 226.726 263.964C226.944 263.131 227.123 262.298 227.281 261.464C227.341 261.167 227.38 260.849 227.42 260.552C228.551 259.858 229.622 258.945 230.673 258.171C231.824 257.338 232.995 256.525 234.066 255.612C236.149 253.867 237.438 251.724 238.212 249.125C239.005 246.427 239.263 243.591 239.581 240.813C239.958 237.52 240.215 234.227 240.672 230.954C240.711 230.795 240.414 230.716 240.374 230.914Z" fill="#263238"/>
<path d="M220.477 117.263C252.059 134.859 297.805 140.731 310.719 133.034C324.348 124.9 343.293 85.2245 344.662 58.5625C344.959 52.6707 300.542 55.0116 299.451 59.0188C296.257 70.8223 286.656 93.0605 284.613 93.12C281.935 93.1994 247.972 94.707 224.405 91.8504C195.104 88.2994 203.099 107.582 220.477 117.263Z" fill="#F7A9A0"/>
<path d="M346.546 34.6382C348.213 44.0016 344.166 64.4941 341.27 69.0568C338.393 73.6195 303.32 67.8665 300.681 63.0063C298.043 58.1262 294.849 26.1675 299.491 17.6372C304.113 9.10695 344.801 24.9375 346.546 34.6382Z" fill="#F7A9A0"/>
<path d="M294.968 32.1985C298.301 35.9875 300.86 29.8973 300.86 29.8973C300.86 29.8973 299.293 39.5583 304.232 42.1174C308.993 44.5971 311.83 37.1183 312.048 36.5827C311.969 37.0984 310.759 46.0056 315.996 48.0886C321.432 50.2509 322.999 42.2562 323.078 41.7405C323.158 42.2562 324.288 48.9218 328.633 49.5962C336.072 50.7468 333.652 33.607 337.52 28.8856C337.52 28.8856 346.269 34.5195 346.566 34.6385C346.566 34.6385 344.583 18.2723 337.917 13.4121C334.406 10.853 331.331 13.6105 331.331 13.6105C331.331 13.6105 331.271 8.27408 327.205 6.48868C325.122 5.59597 321.809 8.13522 321.809 8.13522C321.809 8.13522 321.59 3.85026 317.861 2.50129C314.905 1.41021 312.048 4.128 312.048 4.128C312.048 4.128 309.926 0.120762 306.534 0.00173527C299.709 -0.236318 287.866 24.0848 294.968 32.1985Z" fill="#F7A9A0"/>
<path d="M311.513 4.52572C311.553 4.44636 311.453 4.367 311.394 4.44635C305.542 11.4888 301.277 21.0109 300.681 30.2157C300.662 30.5132 301.138 30.672 301.237 30.3545C303.677 20.9911 306.573 12.8774 311.513 4.52572Z" fill="#263238"/>
<path d="M321.808 8.01687C321.868 7.91768 321.709 7.83832 321.65 7.91767C315.659 15.218 311.155 26.0693 311.711 36.742C311.731 37.0991 312.108 37.4165 312.128 36.9999C312.266 29.8781 317.305 15.5156 321.808 8.01687Z" fill="#263238"/>
<path d="M323.376 42.4755C323.237 32.2194 326.411 22.9551 331.053 13.909C331.113 13.79 330.934 13.7107 330.855 13.8098C327.383 17.6187 325.042 23.6891 323.614 28.5692C322.245 33.2509 321.948 37.7343 323.019 42.4755C323.058 42.6739 323.376 42.6937 323.376 42.4755Z" fill="#263238"/>
<path d="M300.86 29.8976C300.741 31.7822 300.761 33.6866 300.979 35.5316C301.217 37.3566 301.673 39.2611 302.764 40.61C303.3 41.2845 304.034 41.7408 304.847 41.8797C305.68 41.9987 306.573 41.959 307.347 41.6614C308.914 41.0861 310.045 39.5388 310.6 37.9914L312.009 34.1032L312.029 38.2493C312.029 40.0546 312.306 41.959 312.901 43.665C313.497 45.3513 314.528 46.8986 316.036 47.4938C317.603 48.1484 319.25 47.831 320.281 46.5019C321.352 45.2322 321.967 43.3873 322.265 41.6614L323.098 36.8408L323.892 41.6416C324.11 42.9509 324.507 44.3197 325.062 45.5298C325.617 46.7399 326.391 47.8707 327.423 48.4856C328.434 49.1006 329.783 49.1403 330.696 48.5055C331.668 47.8508 332.342 46.5812 332.838 45.3116C333.85 42.7128 334.306 39.876 334.902 37.0789C335.179 35.6704 335.477 34.2619 335.834 32.8733C336.211 31.5045 336.588 30.0365 337.52 28.9256C336.727 30.1357 336.508 31.5838 336.231 32.9725C335.993 34.3809 335.814 35.7894 335.636 37.2178C335.278 40.0546 334.882 42.931 333.969 45.748C333.473 47.1168 332.878 48.6047 331.509 49.6561C330.101 50.7471 328.097 50.648 326.669 49.8148C325.201 48.9617 324.308 47.5731 323.654 46.2241C322.999 44.8355 322.562 43.427 322.285 41.9193L323.911 41.8995C323.574 43.9428 322.999 45.9067 321.63 47.6524C320.956 48.5055 319.924 49.2196 318.754 49.4577C317.583 49.6957 316.452 49.4974 315.421 49.0609C313.298 48.1484 312.068 46.1249 311.453 44.2205C310.818 42.2566 310.58 40.2926 310.6 38.2493L312.029 38.5072C311.255 40.4513 309.827 42.1574 307.763 42.8319C306.752 43.1493 305.68 43.1493 304.669 42.9509C303.617 42.7327 302.685 42.0582 302.09 41.225C300.9 39.5189 300.642 37.5153 300.523 35.6307C300.384 33.6469 300.523 31.7425 300.86 29.8976Z" fill="#263238"/>
<path d="M299.174 57.6704C299.174 57.6704 276.995 23.9462 294.433 21.7243C299.611 21.0697 321.67 24.5611 321.055 29.0048C320.262 34.7379 310.779 34.9958 304.808 34.2222C304.808 34.2222 313.973 44.637 308.617 53.1673C305.264 58.5235 299.174 57.6704 299.174 57.6704Z" fill="#F7A9A0"/>
<path d="M292.985 22.0023C294.969 21.427 297.051 21.3873 299.115 21.4071C301.178 21.427 303.221 21.6452 305.264 21.9626C309.331 22.6172 313.358 23.3909 317.326 24.7597C318.318 25.1168 319.309 25.5334 320.262 26.2079C320.738 26.5451 321.214 27.0014 321.531 27.5966C321.69 27.8941 321.809 28.152 321.888 28.5686C321.948 28.9257 321.948 29.2828 321.908 29.6002C321.75 30.9095 321.016 31.9609 320.163 32.7544C319.27 33.5082 318.258 34.024 317.227 34.4207C315.163 35.1746 313.021 35.3928 310.918 35.3928C308.815 35.4325 306.752 35.2143 304.689 34.9564L305.304 33.7661C306.336 35.0159 307.189 36.3252 307.942 37.694C308.696 39.0628 309.331 40.5109 309.787 42.0186C310.244 43.5263 310.462 45.0935 310.462 46.6607C310.462 48.2278 310.164 49.7752 309.569 51.2035C309.946 49.7157 310.085 48.1882 309.946 46.6805C309.827 45.1728 309.43 43.7049 308.914 42.3162C308.399 40.9077 307.724 39.5588 306.931 38.2891C306.137 37.0195 305.225 35.7896 304.253 34.7381L303.003 33.3892L304.868 33.5479C306.871 33.7066 308.895 33.8851 310.878 33.7859C312.862 33.7066 314.846 33.5082 316.631 32.8337C318.357 32.1989 320.024 30.969 320.222 29.4018C320.52 28.033 318.536 26.9816 316.75 26.3071C314.906 25.5929 312.942 25.0375 310.997 24.5018C309.034 23.9662 307.07 23.4504 305.086 23.0537C301.098 22.2602 297.051 21.4865 292.985 22.0023Z" fill="#263238"/>
<path d="M292.21 69.1573L346.546 72.7479C346.546 72.7479 330.695 130.039 306.791 136.348C282.886 142.656 239.045 132.122 218.255 117.76C197.465 103.417 198.278 89.6497 222.024 90.9194C245.77 92.189 281.557 92.9428 284.037 90.9194C286.497 88.9157 292.21 69.1573 292.21 69.1573Z" fill="#70D943"/>
<path d="M346.546 72.7481C346.546 72.7481 346.288 73.7003 345.752 75.4064C345.673 75.6643 345.594 75.9618 345.495 76.2793C345.098 77.529 344.602 79.0962 343.987 80.9015C343.967 80.9808 343.947 81.0602 343.908 81.1594C343.65 81.9132 343.392 82.7067 343.094 83.5399C343.015 83.7581 342.935 83.9763 342.856 84.2144C342.678 84.7103 342.499 85.2261 342.321 85.7617C342.201 86.0593 342.102 86.3568 341.983 86.6544C341.448 88.1224 340.872 89.6698 340.257 91.2766C340.218 91.356 340.178 91.4353 340.158 91.5147C339.563 93.0025 338.948 94.5697 338.274 96.1369C338.274 96.1766 338.254 96.2162 338.234 96.2361C338.135 96.494 338.016 96.7519 337.917 97.0097C337.738 97.4462 337.559 97.8628 337.361 98.2992C336.885 99.4101 336.389 100.521 335.893 101.632C335.853 101.711 335.814 101.791 335.774 101.87C335.08 103.398 334.346 104.945 333.572 106.492C333.433 106.79 333.274 107.087 333.116 107.385C332.997 107.643 332.878 107.881 332.739 108.139C332.66 108.297 332.58 108.476 332.481 108.635C331.906 109.765 331.311 110.876 330.696 111.987C330.636 112.067 330.596 112.166 330.557 112.245C329.684 113.793 328.811 115.3 327.879 116.788C327.859 116.808 327.859 116.828 327.839 116.867C327.66 117.145 327.462 117.443 327.283 117.74C327.184 117.899 327.085 118.038 326.986 118.197C326.054 119.625 325.101 121.033 324.109 122.362C324.07 122.442 324.01 122.521 323.951 122.601C323.435 123.295 322.919 123.969 322.384 124.624C322.304 124.723 322.205 124.842 322.126 124.941C321.491 125.735 320.836 126.489 320.162 127.223C319.904 127.52 319.626 127.818 319.368 128.096C318.753 128.73 318.138 129.345 317.503 129.921C317.206 130.218 316.928 130.476 316.631 130.714C315.817 131.448 314.984 132.103 314.151 132.718C314.012 132.797 313.893 132.896 313.774 132.976C313.199 133.392 312.603 133.769 312.008 134.106C311.929 134.166 311.85 134.206 311.77 134.245C310.263 135.118 308.735 135.793 307.148 136.229C307.029 136.289 306.89 136.308 306.771 136.348C306.612 136.388 306.454 136.427 306.275 136.467C304.807 136.844 303.26 137.161 301.653 137.4C301.574 137.419 301.474 137.439 301.395 137.439C301.098 137.499 300.8 137.538 300.502 137.578C299.292 137.737 298.062 137.876 296.793 137.975C296.495 137.995 296.198 138.015 295.9 138.034C294.412 138.134 292.865 138.213 291.298 138.213C291.218 138.233 291.139 138.233 291.04 138.233C289.532 138.233 287.985 138.213 286.418 138.173C286.14 138.153 285.842 138.153 285.545 138.134C284.037 138.074 282.49 137.975 280.923 137.836C280.843 137.836 280.764 137.816 280.684 137.816C279.851 137.737 279.018 137.657 278.165 137.578C277.471 137.499 276.757 137.419 276.062 137.34C275.765 137.3 275.467 137.28 275.189 137.221C273.662 137.042 272.115 136.824 270.567 136.566C270.488 136.566 270.408 136.546 270.309 136.527C268.782 136.289 267.254 136.011 265.707 135.713C265.409 135.674 265.112 135.614 264.814 135.535C263.267 135.237 261.72 134.92 260.192 134.563C260.113 134.543 260.033 134.523 259.954 134.503C258.407 134.146 256.859 133.769 255.332 133.372C255.034 133.313 254.737 133.234 254.459 133.134C254.241 133.095 254.042 133.035 253.844 132.976C253.527 132.896 253.209 132.817 252.912 132.718C251.88 132.46 250.848 132.162 249.837 131.845C249.757 131.825 249.678 131.805 249.599 131.785C248.051 131.329 246.504 130.833 244.976 130.337C244.679 130.238 244.381 130.139 244.084 130.04C242.517 129.504 240.989 128.949 239.481 128.393C239.382 128.353 239.303 128.334 239.223 128.294C239.045 128.234 238.866 128.155 238.708 128.096C237.954 127.818 237.22 127.52 236.486 127.223C235.851 126.965 235.216 126.707 234.601 126.449C234.304 126.33 234.026 126.211 233.728 126.072C232.141 125.398 230.594 124.703 229.106 123.989C229.027 123.949 228.947 123.91 228.868 123.87C228.015 123.454 227.162 123.037 226.349 122.601C226.19 122.521 226.051 122.442 225.892 122.362C225.337 122.065 224.782 121.767 224.246 121.47C223.948 121.311 223.671 121.152 223.373 120.994C221.746 120.061 220.179 119.109 218.751 118.137C218.652 118.078 218.572 118.018 218.493 117.958C218.394 117.899 218.314 117.839 218.235 117.78C218.215 117.76 218.195 117.76 218.176 117.74C217.759 117.443 217.342 117.165 216.946 116.867C215.855 116.094 214.843 115.3 213.891 114.527C213.573 114.288 213.295 114.05 212.998 113.793C212.383 113.277 211.788 112.761 211.232 112.245C211.133 112.166 211.034 112.067 210.955 111.987C210.002 111.095 209.149 110.222 208.396 109.369C208.296 109.27 208.217 109.17 208.138 109.091C207.622 108.516 207.166 107.94 206.749 107.385C206.511 107.087 206.293 106.79 206.094 106.492C204.983 104.866 204.21 103.318 203.793 101.87C203.753 101.791 203.734 101.711 203.734 101.632C203.615 101.315 203.555 100.997 203.515 100.68C203.317 99.7275 203.317 98.815 203.515 97.962C203.575 97.6247 203.654 97.3073 203.773 97.0097C203.872 96.7122 204.011 96.4146 204.19 96.1369C204.924 94.7482 206.253 93.5976 208.138 92.7248C208.217 92.6851 208.316 92.6454 208.396 92.6058C209.407 92.1693 210.578 91.7924 211.907 91.5147C212.264 91.4353 212.621 91.3758 212.998 91.3163C213.077 91.2965 213.137 91.2766 213.216 91.2766C213.434 91.2369 213.653 91.1973 213.891 91.1774C215.279 90.9791 216.827 90.8799 218.493 90.8799C218.572 90.86 218.652 90.86 218.751 90.86C219.763 90.86 220.854 90.8799 222.004 90.9394C222.461 90.9592 222.917 90.9791 223.373 90.9989C223.651 91.0187 223.948 91.0386 224.246 91.0386C225.754 91.1378 227.281 91.1973 228.868 91.2766C228.947 91.2766 229.027 91.2766 229.106 91.2965C230.614 91.356 232.161 91.4155 233.728 91.475C234.026 91.4949 234.324 91.4948 234.601 91.5147H234.621C236.149 91.5742 237.676 91.6337 239.223 91.6734C239.303 91.6932 239.402 91.6932 239.481 91.6932C241.009 91.7527 242.556 91.7924 244.084 91.8519C244.381 91.8519 244.679 91.8519 244.976 91.8718C246.524 91.9114 248.071 91.9511 249.599 91.9908H249.837C251.404 92.0305 252.931 92.0701 254.459 92.09C254.756 92.09 255.034 92.09 255.332 92.1098C256.899 92.1296 258.446 92.1495 259.954 92.1693H260.192C261.779 92.1892 263.326 92.1892 264.814 92.1892H265.707C267.314 92.1892 268.861 92.1693 270.309 92.1495H270.567C272.234 92.1297 273.781 92.09 275.189 92.0305C275.487 92.0106 275.785 92.0106 276.062 91.9908C277.868 91.9114 279.435 91.8122 280.684 91.6734C280.764 91.6734 280.843 91.6535 280.923 91.6535C281.319 91.6139 281.676 91.5543 282.014 91.5147C282.49 91.4353 282.906 91.356 283.224 91.2766C283.601 91.1774 283.878 91.0584 284.017 90.9394C284.434 90.5823 284.969 89.7094 285.545 88.4795C285.803 87.9439 286.08 87.3289 286.338 86.6544C286.378 86.5949 286.398 86.5354 286.418 86.4759L286.715 85.7617C287.271 84.3532 287.846 82.7662 288.401 81.1594C288.441 81.08 288.461 80.9808 288.501 80.9015C289.036 79.3343 289.552 77.7472 290.028 76.2793C290.127 75.9817 290.207 75.6841 290.306 75.4064C290.564 74.5732 290.822 73.7797 291.04 73.0655C291.119 72.768 291.218 72.4902 291.298 72.2125C291.456 71.6769 291.615 71.2008 291.734 70.7842C291.754 70.7048 291.774 70.6255 291.813 70.5461C292.052 69.6733 292.21 69.1575 292.21 69.1575L295.9 69.3955L296.793 69.455L301.395 69.7725H301.653L306.275 70.0899L307.148 70.1494L311.77 70.4469L312.008 70.4668L313.218 70.5461L316.631 70.7643L316.829 70.7842L317.503 70.8239L322.126 71.1413L322.384 71.1611L326.986 71.4586L327.879 71.5182L332.481 71.8157L332.739 71.8356L337.361 72.1332L338.234 72.1927L342.856 72.5101L343.094 72.5299L346.546 72.7481Z" fill="#70D943"/>
<g opacity="0.3">
<path d="M203.516 97.9628V100.681C203.317 99.7284 203.317 98.8159 203.516 97.9628Z" fill="white"/>
<path d="M208.396 92.6058V109.369C208.297 109.27 208.217 109.17 208.138 109.091V92.7248C208.217 92.6852 208.316 92.6455 208.396 92.6058Z" fill="white"/>
<path d="M213.891 91.1786V114.528C213.573 114.29 213.295 114.052 212.998 113.794V91.2778H213.216C213.434 91.2381 213.653 91.1985 213.891 91.1786Z" fill="white"/>
<path d="M218.751 90.8604V118.137C218.652 118.078 218.572 118.018 218.493 117.959V90.8802C218.572 90.8604 218.652 90.8604 218.751 90.8604Z" fill="white"/>
<path d="M224.246 91.0376V121.469C223.948 121.31 223.671 121.151 223.373 120.993V90.9979C223.651 91.0177 223.948 91.0376 224.246 91.0376Z" fill="white"/>
<path d="M229.106 91.2771V123.99C229.027 123.95 228.948 123.91 228.868 123.871V91.2771H229.106Z" fill="white"/>
<path d="M234.601 91.514V126.448C234.304 126.329 234.026 126.21 233.728 126.071V91.4743C234.026 91.4942 234.324 91.4942 234.601 91.514Z" fill="white"/>
<path d="M239.481 91.6937V128.394C239.382 128.354 239.303 128.334 239.224 128.294V91.6738C239.303 91.6937 239.402 91.6937 239.481 91.6937Z" fill="white"/>
<path d="M244.976 91.8719V130.337C244.679 130.238 244.381 130.139 244.084 130.04V91.8521C244.381 91.8521 244.679 91.8521 244.976 91.8719Z" fill="white"/>
<path d="M249.837 91.9896V131.844C249.757 131.824 249.678 131.804 249.599 131.784V91.9896H249.837Z" fill="white"/>
<path d="M255.332 92.1104V133.373C255.034 133.313 254.736 133.234 254.459 133.135V92.0905C254.756 92.0905 255.034 92.0905 255.332 92.1104Z" fill="white"/>
<path d="M260.192 92.1701V134.564C260.113 134.544 260.033 134.524 259.954 134.504V92.1701H260.192Z" fill="white"/>
<path d="M265.707 92.1893V135.713C265.41 135.674 265.112 135.614 264.814 135.535V92.1893H265.707Z" fill="white"/>
<path d="M270.567 92.1487V136.566C270.488 136.566 270.408 136.546 270.309 136.526V92.1487H270.567Z" fill="white"/>
<path d="M276.063 91.9896V137.339C275.765 137.299 275.467 137.279 275.19 137.22V92.0293C275.487 92.0094 275.785 92.0094 276.063 91.9896Z" fill="white"/>
<path d="M280.923 91.6533V137.836C280.844 137.836 280.764 137.816 280.685 137.816V91.6731C280.764 91.6731 280.844 91.6533 280.923 91.6533Z" fill="white"/>
<path d="M286.418 86.4765V138.174C286.14 138.154 285.843 138.154 285.545 138.134V88.4802C285.803 87.9445 286.081 87.3296 286.339 86.6551C286.378 86.5956 286.398 86.5361 286.418 86.4765Z" fill="white"/>
<path d="M291.298 72.2121V138.212C291.219 138.232 291.139 138.232 291.04 138.232V73.0651C291.12 72.7676 291.219 72.4898 291.298 72.2121Z" fill="white"/>
<path d="M296.793 69.4551V137.975C296.495 137.995 296.198 138.015 295.9 138.034V69.3956L296.793 69.4551Z" fill="white"/>
<path d="M301.653 69.7731V137.4C301.574 137.42 301.475 137.44 301.396 137.44V69.7731H301.653Z" fill="white"/>
<path d="M307.148 70.1485V136.228C307.029 136.288 306.89 136.308 306.771 136.347C306.613 136.387 306.454 136.427 306.275 136.466V70.0889L307.148 70.1485Z" fill="white"/>
<path d="M312.008 70.4676V134.107C311.929 134.167 311.85 134.206 311.77 134.246V70.4477L312.008 70.4676Z" fill="white"/>
<path d="M317.504 70.7847V129.921C317.206 130.219 316.928 130.477 316.631 130.715V70.7649L316.829 70.7847H317.504Z" fill="white"/>
<path d="M322.384 71.1607V124.624C322.304 124.723 322.205 124.842 322.126 124.941V71.1408L322.384 71.1607Z" fill="white"/>
<path d="M327.879 71.5177V116.867H327.839C327.66 117.145 327.462 117.442 327.283 117.74C327.184 117.898 327.085 118.037 326.986 118.196V71.4582L327.879 71.5177Z" fill="white"/>
<path d="M332.739 71.835V108.138C332.66 108.297 332.58 108.475 332.481 108.634V71.8152L332.739 71.835Z" fill="white"/>
<path d="M338.234 72.1918V96.2352C338.135 96.4931 338.016 96.751 337.917 97.0089C337.738 97.4453 337.559 97.862 337.361 98.2984V72.1323L338.234 72.1918Z" fill="white"/>
<path d="M343.094 72.5299V83.5399C343.015 83.7581 342.935 83.9763 342.856 84.2144V72.5101L343.094 72.5299Z" fill="white"/>
</g>
<g opacity="0.3">
<path d="M316.83 70.7842H291.735C291.755 70.7048 291.775 70.6255 291.814 70.5461H313.219L316.631 70.7643L316.83 70.7842Z" fill="white"/>
<path d="M345.753 75.4071C345.674 75.665 345.594 75.9626 345.495 76.28H290.029C290.128 75.9824 290.207 75.6848 290.306 75.4071H345.753Z" fill="white"/>
<path d="M343.987 80.901C343.967 80.9803 343.948 81.0597 343.908 81.1589H288.402C288.441 81.0795 288.461 80.9803 288.501 80.901H343.987Z" fill="white"/>
<path d="M342.321 85.7617C342.202 86.0593 342.102 86.3569 341.983 86.6544H286.338C286.378 86.5949 286.398 86.5354 286.418 86.4759L286.715 85.7617H342.321Z" fill="white"/>
<path d="M234.602 91.5153H211.907C212.264 91.4359 212.622 91.3764 212.998 91.3169V91.2772H229.107V91.297C230.614 91.3566 232.162 91.4161 233.729 91.4756C234.026 91.4954 234.324 91.4954 234.602 91.5153Z" fill="white"/>
<path d="M340.258 91.2772C340.218 91.3566 340.178 91.4359 340.159 91.5153H282.014C282.49 91.4359 282.907 91.3566 283.224 91.2772H340.258Z" fill="white"/>
<path d="M338.274 96.138C338.274 96.1776 338.254 96.2173 338.234 96.2372C338.135 96.4951 338.016 96.7529 337.917 97.0108H203.774C203.873 96.7133 204.012 96.4157 204.19 96.138H338.274Z" fill="white"/>
<path d="M335.893 101.632C335.854 101.711 335.814 101.791 335.774 101.87H203.794C203.754 101.791 203.734 101.711 203.734 101.632H335.893Z" fill="white"/>
<path d="M333.572 106.493C333.434 106.79 333.275 107.088 333.116 107.386H206.749C206.511 107.088 206.293 106.79 206.095 106.493H333.572Z" fill="white"/>
<path d="M330.696 111.987C330.636 112.066 330.597 112.165 330.557 112.245H211.233C211.133 112.165 211.034 112.066 210.955 111.987H330.696Z" fill="white"/>
<path d="M327.839 116.867C327.661 117.144 327.462 117.442 327.284 117.739H218.176C217.759 117.442 217.343 117.164 216.946 116.867H327.839Z" fill="white"/>
<path d="M324.11 122.363C324.07 122.442 324.01 122.522 323.951 122.601H226.349C226.19 122.522 226.051 122.442 225.893 122.363H324.11Z" fill="white"/>
<path d="M320.162 127.223C319.904 127.521 319.626 127.818 319.369 128.096H238.708C237.954 127.818 237.22 127.521 236.486 127.223H320.162Z" fill="white"/>
<path d="M314.151 132.718C314.012 132.797 313.893 132.896 313.774 132.975H253.844C253.527 132.896 253.21 132.817 252.912 132.718H314.151Z" fill="white"/>
<path d="M300.503 137.579C299.293 137.737 298.063 137.876 296.793 137.975C296.496 137.995 296.198 138.015 295.901 138.035C294.413 138.134 292.865 138.213 291.298 138.213C291.219 138.233 291.139 138.233 291.04 138.233C289.533 138.233 287.985 138.213 286.418 138.174C286.14 138.154 285.843 138.154 285.545 138.134C284.038 138.074 282.49 137.975 280.923 137.836C280.844 137.836 280.764 137.817 280.685 137.817C279.852 137.737 279.019 137.658 278.166 137.579H300.503Z" fill="white"/>
</g>
<path d="M246.028 130.674C235.216 127.183 225.377 122.699 218.235 117.779C199.984 105.182 198.378 93.0616 214.268 91.1373L246.028 130.674Z" fill="#263238"/>
<path d="M291.417 78.7392C293.52 79.2153 295.722 79.2748 297.864 79.5525C300.006 79.8302 302.169 80.0088 304.311 80.1873C308.457 80.5246 312.623 80.8221 316.769 81.08C320.935 81.3379 325.081 81.5958 329.247 81.8338C333.552 82.0917 337.917 82.5678 342.221 82.4686C342.42 82.4686 342.44 82.2108 342.241 82.1711C337.996 81.4569 333.612 81.2784 329.327 80.9015C325.101 80.5246 320.876 80.1675 316.65 79.8104C312.425 79.4533 308.18 79.1359 303.954 78.8582C301.871 78.7193 299.788 78.6201 297.705 78.5606C295.603 78.5209 293.5 78.2829 291.417 78.4217C291.238 78.4813 291.278 78.7193 291.417 78.7392Z" fill="#263238"/>
<path d="M144.697 244.503C144.994 244.801 264.834 236.588 265.846 235.278C267.255 233.434 230.912 105.559 217.462 90.403C214.585 87.1694 205.837 86.8322 198.517 88.2804C196.493 88.6771 194.589 89.2127 192.922 89.8475C192.883 89.8674 192.823 89.8872 192.744 89.9071C191.077 90.5815 189.669 91.3751 188.717 92.2479C169.355 110.102 156.183 168.604 153.386 186.101C148.724 214.925 143.625 243.452 144.697 244.503Z" fill="#70D943"/>
<g opacity="0.3">
<path d="M146.204 230.081V244.443C146.125 244.443 146.045 244.463 145.966 244.463V230.855H146.085C146.125 230.597 146.165 230.339 146.204 230.081Z" fill="white"/>
<path d="M151.699 196.337V244.146C151.402 244.146 151.104 244.166 150.826 244.186V201.673C150.886 201.336 150.946 200.999 150.985 200.642C151.045 200.364 151.084 200.066 151.144 199.769C151.322 198.638 151.521 197.488 151.699 196.337Z" fill="white"/>
<path d="M156.579 170.011V243.828C156.48 243.828 156.401 243.828 156.321 243.848V171.142C156.401 170.785 156.48 170.388 156.579 170.011Z" fill="white"/>
<path d="M162.074 148.488V243.472C161.777 243.492 161.499 243.511 161.201 243.511V151.563C161.459 150.651 161.717 149.738 161.975 148.826C161.995 148.707 162.035 148.607 162.074 148.488Z" fill="white"/>
<path d="M166.935 132.993V243.153H166.697V133.688C166.776 133.47 166.855 133.232 166.935 132.993Z" fill="white"/>
<path d="M172.43 118.592V242.757C172.132 242.797 171.854 242.817 171.557 242.836V120.675C171.854 119.981 172.132 119.287 172.43 118.592Z" fill="white"/>
<path d="M177.29 108.297V242.44C177.211 242.44 177.131 242.46 177.052 242.46V108.734C177.131 108.595 177.211 108.436 177.29 108.297Z" fill="white"/>
<path d="M182.805 99.1708V242.082H182.507C182.309 242.102 182.111 242.102 181.912 242.122V100.46C182.21 100.024 182.507 99.5874 182.805 99.1708Z" fill="white"/>
<path d="M187.665 93.2794V241.726C187.586 241.726 187.506 241.746 187.407 241.746V93.5373C187.506 93.4579 187.586 93.3587 187.665 93.2794Z" fill="white"/>
<path d="M193.161 89.7671V241.348C192.863 241.368 192.585 241.387 192.288 241.407V90.1242C192.446 90.0449 192.585 89.9854 192.744 89.9258C192.823 89.8862 192.903 89.8663 192.922 89.8465C193.002 89.8266 193.081 89.787 193.161 89.7671Z" fill="white"/>
<path d="M198.02 88.3803V240.993C197.941 240.993 197.862 241.012 197.782 241.012V88.4398C197.862 88.42 197.941 88.4001 198.02 88.3803Z" fill="white"/>
<path d="M203.516 87.605V240.594C203.238 240.614 202.941 240.634 202.643 240.654V87.6645C202.921 87.6446 203.218 87.6248 203.516 87.605Z" fill="white"/>
<path d="M208.396 87.5065V240.258C208.297 240.258 208.217 240.258 208.138 240.277V87.5065H208.396Z" fill="white"/>
<path d="M213.891 88.3781V239.86C213.593 239.879 213.296 239.899 212.998 239.919V88.1202C213.316 88.1996 213.613 88.2789 213.891 88.3781Z" fill="white"/>
<path d="M218.751 92.1079V239.503C218.672 239.503 218.573 239.503 218.493 239.523V91.731C218.573 91.85 218.652 91.969 218.751 92.1079Z" fill="white"/>
<path d="M224.246 102.643V239.067C223.948 239.107 223.671 239.127 223.373 239.147V100.738C223.512 101.036 223.651 101.333 223.77 101.631C223.81 101.71 223.849 101.79 223.889 101.869C224.008 102.127 224.127 102.385 224.246 102.643Z" fill="white"/>
<path d="M228.869 113.871C228.948 114.07 229.027 114.268 229.107 114.466V238.711C229.027 238.73 228.948 238.73 228.869 238.73V113.871Z" fill="white"/>
<path d="M234.602 129.464V238.294C234.304 238.314 234.026 238.334 233.729 238.354V126.984C233.748 127.064 233.788 127.143 233.808 127.222C233.907 127.5 234.026 127.798 234.125 128.095C234.284 128.552 234.443 129.008 234.602 129.464Z" fill="white"/>
<path d="M239.482 143.746V237.916C239.402 237.916 239.303 237.916 239.224 237.936V142.992C239.243 143.012 239.243 143.032 239.243 143.071C239.283 143.151 239.323 143.23 239.343 143.329C239.382 143.468 239.442 143.607 239.482 143.746Z" fill="white"/>
<path d="M244.977 160.728V237.461C244.679 237.48 244.382 237.52 244.084 237.54V157.911C244.124 158.03 244.183 158.169 244.203 158.308C244.302 158.605 244.401 158.883 244.481 159.181C244.659 159.696 244.818 160.212 244.977 160.728Z" fill="white"/>
<path d="M249.837 176.38V237.064C249.758 237.064 249.678 237.064 249.599 237.084V175.587C249.678 175.865 249.758 176.123 249.837 176.38Z" fill="white"/>
<path d="M255.332 194.829V236.567C255.252 236.587 255.173 236.587 255.094 236.587C254.895 236.607 254.677 236.627 254.459 236.647V191.833C254.756 192.845 255.034 193.837 255.332 194.829Z" fill="white"/>
<path d="M260.192 211.948V236.111C260.113 236.111 260.034 236.131 259.954 236.131V211.095C260.034 211.393 260.113 211.671 260.192 211.948Z" fill="white"/>
<path d="M265.707 233.671V235.358C265.548 235.417 265.251 235.477 264.814 235.556V229.585C264.933 230.041 265.033 230.458 265.112 230.854C265.191 231.172 265.251 231.45 265.31 231.727C265.489 232.501 265.608 233.156 265.707 233.671Z" fill="white"/>
</g>
<g opacity="0.3">
<path d="M218.334 91.5146H189.689C189.788 91.4353 189.907 91.3559 190.026 91.2766H218.156C218.215 91.3559 218.275 91.4353 218.334 91.5146Z" fill="white"/>
<path d="M221.568 97.0104H184.412C184.63 96.7128 184.868 96.4351 185.106 96.1375H221.112C221.271 96.4153 221.41 96.7128 221.568 97.0104Z" fill="white"/>
<path d="M223.889 101.869H180.98C181.04 101.79 181.099 101.711 181.139 101.631H223.77C223.81 101.711 223.85 101.79 223.889 101.869Z" fill="white"/>
<path d="M226.27 107.385H177.786C177.945 107.087 178.104 106.79 178.262 106.492H225.893C226.032 106.79 226.151 107.087 226.27 107.385Z" fill="white"/>
<path d="M228.234 112.246H175.306C175.346 112.166 175.386 112.087 175.425 111.988H228.134C228.174 112.067 228.194 112.166 228.234 112.246Z" fill="white"/>
<path d="M230.336 117.741H172.807C172.926 117.443 173.045 117.165 173.184 116.868H230.019C230.118 117.165 230.237 117.443 230.336 117.741Z" fill="white"/>
<path d="M232.141 122.6H170.783C170.803 122.521 170.843 122.442 170.882 122.362H232.062C232.082 122.442 232.122 122.521 232.141 122.6Z" fill="white"/>
<path d="M234.126 128.095H168.681C168.78 127.798 168.879 127.52 168.998 127.222H233.808C233.907 127.5 234.027 127.798 234.126 128.095Z" fill="white"/>
<path d="M235.831 132.975H166.935C166.974 132.895 166.994 132.796 167.034 132.717H235.752C235.772 132.796 235.792 132.895 235.831 132.975Z" fill="white"/>
<path d="M237.716 138.471H165.11C165.209 138.173 165.288 137.875 165.387 137.578H237.419C237.518 137.875 237.617 138.173 237.716 138.471Z" fill="white"/>
<path d="M239.343 143.331H163.582C163.622 143.252 163.642 143.153 163.662 143.074H239.244C239.283 143.153 239.323 143.232 239.343 143.331Z" fill="white"/>
<path d="M241.168 148.826H161.975C161.995 148.707 162.035 148.608 162.075 148.489C162.114 148.311 162.174 148.132 162.233 147.953H240.87C240.969 148.231 241.069 148.529 241.168 148.826Z" fill="white"/>
<path d="M242.735 153.686H160.626C160.646 153.607 160.666 153.527 160.686 153.448H242.656C242.676 153.527 242.715 153.607 242.735 153.686Z" fill="white"/>
<path d="M244.481 159.181H159.178C159.258 158.883 159.317 158.606 159.397 158.308H244.203C244.302 158.606 244.402 158.883 244.481 159.181Z" fill="white"/>
<path d="M246.028 164.061H157.968C157.988 163.981 158.008 163.902 158.027 163.803H245.949C245.968 163.882 246.008 163.961 246.028 164.061Z" fill="white"/>
<path d="M247.754 169.556H156.679C156.738 169.259 156.818 168.961 156.897 168.664H247.476C247.556 168.961 247.655 169.259 247.754 169.556Z" fill="white"/>
<path d="M249.242 174.417H155.608C155.627 174.338 155.647 174.258 155.667 174.179H249.163C249.202 174.258 249.222 174.338 249.242 174.417Z" fill="white"/>
<path d="M250.908 179.912H154.497C154.556 179.634 154.616 179.337 154.675 179.039H250.65C250.73 179.337 250.829 179.634 250.908 179.912Z" fill="white"/>
<path d="M252.357 184.772H153.604C153.624 184.693 153.624 184.613 153.644 184.534H252.297C252.317 184.613 252.337 184.693 252.357 184.772Z" fill="white"/>
<path d="M254.003 190.267H152.711C152.751 189.969 152.811 189.691 152.85 189.394H253.745C253.825 189.691 253.904 189.989 254.003 190.267Z" fill="white"/>
<path d="M255.431 195.148H151.898C151.917 195.069 151.937 194.989 151.937 194.89H255.352C255.372 194.97 255.391 195.069 255.431 195.148Z" fill="white"/>
<path d="M256.998 200.643H150.985C151.045 200.365 151.084 200.068 151.144 199.77H256.76C256.84 200.068 256.919 200.365 256.998 200.643Z" fill="white"/>
<path d="M258.407 205.503H150.192C150.212 205.423 150.232 205.344 150.232 205.265H258.328C258.348 205.344 258.367 205.423 258.407 205.503Z" fill="white"/>
<path d="M259.935 210.998H149.279C149.339 210.7 149.378 210.423 149.438 210.125H259.677C259.776 210.423 259.855 210.72 259.935 210.998Z" fill="white"/>
<path d="M261.263 215.858H148.486C148.505 215.778 148.505 215.699 148.525 215.62H261.204C261.224 215.699 261.244 215.778 261.263 215.858Z" fill="white"/>
<path d="M262.751 221.372H147.573C147.633 221.095 147.672 220.797 147.732 220.48H262.513C262.593 220.777 262.672 221.075 262.751 221.372Z" fill="white"/>
<path d="M264.001 226.234H146.819C146.819 226.154 146.839 226.055 146.859 225.976H263.942C263.962 226.055 263.982 226.135 264.001 226.234Z" fill="white"/>
<path d="M265.31 231.729H145.966V230.856H265.112C265.191 231.173 265.251 231.451 265.31 231.729Z" fill="white"/>
<path d="M257.673 236.35C256.939 236.43 256.165 236.509 255.332 236.569C255.253 236.588 255.173 236.588 255.094 236.588H145.252C145.272 236.509 145.292 236.43 145.292 236.35H257.673Z" fill="white"/>
<path d="M195.005 241.21C194.39 241.25 193.775 241.29 193.16 241.349C192.863 241.369 192.585 241.389 192.288 241.409C190.74 241.508 189.193 241.627 187.665 241.726C187.586 241.726 187.507 241.746 187.407 241.746C185.86 241.845 184.313 241.964 182.805 242.063V242.083H144.637C144.657 241.825 144.677 241.528 144.697 241.21H195.005Z" fill="white"/>
</g>
<path d="M187.685 241.726C164.336 243.372 144.816 244.622 144.697 244.503C143.625 243.452 148.724 214.925 153.385 186.101C156.103 169.1 168.661 113.216 187.149 93.7953L187.685 241.726Z" fill="#263238"/>
<path d="M220.537 95.7187C220.517 95.6592 220.438 95.679 220.458 95.7386C221.172 101.154 222.461 113.731 213.872 113.553C210.42 113.474 207.127 111.549 204.369 109.625C201.532 107.661 198.973 105.32 196.632 102.781C194.034 99.964 191.356 97.028 189.253 93.8143C189.154 93.6754 188.955 93.8341 189.054 93.973C191.296 97.147 193.22 100.5 195.779 103.455C198.239 106.312 200.997 108.951 204.151 111.034C207.107 112.997 210.578 114.902 214.229 114.823C217.7 114.723 220.081 112.422 220.874 109.149C221.906 104.904 221.509 99.9839 220.537 95.7187Z" fill="#263238"/>
<path d="M241.584 256.046L309.152 267.592L338.234 174.176L270.686 162.63L241.584 256.046Z" fill="#A6A6A6"/>
<path d="M244.917 256.622L312.465 268.148L341.547 174.732L273.999 163.186L244.917 256.622Z" fill="#DBDBDB"/>
<path d="M302.824 212.999C301.891 216.57 298.182 218.97 294.551 218.355C290.921 217.74 288.739 214.328 289.671 210.757C290.603 207.186 294.313 204.786 297.943 205.401C301.574 206.036 303.756 209.428 302.824 212.999Z" fill="white"/>
<path d="M179.81 100.48C159.337 127.043 112.758 197.249 125.176 211.631C145.59 235.258 195.601 256.068 211.213 260.75C217.958 262.773 241.902 213.694 235.554 209.667C227.936 204.847 177.628 188.5 177.886 183.898C178.044 181.299 184.65 153.209 189.987 125.238C196.156 92.7632 186.813 91.3745 179.81 100.48Z" fill="#F7A9A0"/>
<path d="M210.995 206.216C210.995 206.216 231.527 200.185 245.136 196.892C252.734 195.047 266.045 193.043 272.234 194.234C281.499 196.019 319.151 209.429 316.096 218.634C313.338 226.966 282.451 211.334 282.451 211.334C282.451 211.334 315.005 224.347 309.827 233.77C304.649 243.173 272.115 220.876 272.115 220.876C272.115 220.876 305.264 235 298.381 243.868C293.183 250.573 262.573 232.025 262.573 232.025C262.573 232.025 290.981 244.364 285.942 251.486C280.368 259.341 251.048 244.007 251.048 244.007C235.177 259.936 221.112 261.028 211.015 260.631C208.595 260.532 210.995 206.216 210.995 206.216Z" fill="#F7A9A0"/>
<path d="M273.008 206.772C297.706 214.528 307.447 225.895 307.129 225.657C299.571 219.765 286.28 213.358 282.53 211.632C278.801 209.906 276.658 208.656 272.929 206.93C272.849 206.871 272.909 206.752 273.008 206.772Z" fill="#263238"/>
<path d="M264.994 219.507C276.936 222.424 289.374 229.585 293.262 232.719C293.58 232.977 293.401 233.037 293.024 232.858C288.323 230.517 269.715 221.729 264.914 219.626C264.875 219.587 264.914 219.488 264.994 219.507Z" fill="#263238"/>
<path d="M257.356 230.003C267.831 233.415 272.175 235.994 278.94 240.874C279.257 241.112 278.98 241.211 278.622 241.013C271.521 237.263 265.966 234.268 257.257 230.261C257.118 230.201 257.198 229.943 257.356 230.003Z" fill="#263238"/>
<path d="M205.599 195.958L179.73 252.139C179.73 252.139 125.018 225.933 121.209 205.818C117.4 185.702 166.836 114.703 176.259 103.118C178.917 99.8443 186.198 92.4051 189.749 93.2582C193.736 94.2302 193.359 100.102 193.141 113.671C192.863 131.763 178.758 181.536 179.849 183.56C180.941 185.623 205.599 195.958 205.599 195.958Z" fill="#70D943"/>
<g opacity="0.3">
<path d="M125.494 186.178V214.526C125.414 214.407 125.315 214.288 125.236 214.169V186.813C125.315 186.595 125.395 186.396 125.494 186.178Z" fill="white"/>
<path d="M130.989 174.217V220.638C130.929 220.578 130.89 220.539 130.83 220.479C130.592 220.241 130.334 220.003 130.096 219.765V176.003C130.354 175.487 130.612 174.951 130.89 174.416C130.909 174.356 130.949 174.297 130.989 174.217Z" fill="white"/>
<path d="M135.849 165.011V224.961C135.77 224.902 135.691 224.842 135.611 224.763V165.448C135.691 165.309 135.77 165.15 135.849 165.011Z" fill="white"/>
<path d="M141.344 155.331V229.286C141.046 229.068 140.749 228.85 140.471 228.632V156.819C140.769 156.323 141.066 155.827 141.344 155.331Z" fill="white"/>
<path d="M146.204 147.256V232.757C146.125 232.698 146.046 232.638 145.966 232.579V147.653C146.046 147.514 146.125 147.375 146.204 147.256Z" fill="white"/>
<path d="M151.699 138.488V236.408C151.68 236.388 151.64 236.368 151.62 236.348C151.362 236.17 151.084 236.011 150.827 235.833V139.877C151.124 139.401 151.422 138.945 151.699 138.488Z" fill="white"/>
<path d="M156.579 130.991V239.444C156.5 239.404 156.401 239.345 156.322 239.285V131.388C156.401 131.249 156.5 131.13 156.579 130.991Z" fill="white"/>
<path d="M162.074 122.796V242.716C161.797 242.537 161.499 242.379 161.202 242.2V124.066C161.499 123.63 161.797 123.213 162.074 122.796Z" fill="white"/>
<path d="M166.697 116.132C166.776 116.013 166.856 115.894 166.935 115.795V245.455C166.856 245.415 166.776 245.376 166.697 245.316V116.132Z" fill="white"/>
<path d="M172.43 108.137V248.43C172.152 248.271 171.855 248.132 171.557 247.954V109.327C171.855 108.911 172.152 108.514 172.43 108.137Z" fill="white"/>
<path d="M177.291 101.947V250.929C177.211 250.889 177.132 250.85 177.053 250.81V102.205C177.132 102.106 177.191 102.027 177.291 101.947Z" fill="white"/>
<path d="M182.805 96.5518V168.305C182.786 168.424 182.766 168.543 182.726 168.662C182.667 168.96 182.587 169.257 182.528 169.555C182.31 170.467 182.111 171.36 181.913 172.193V97.3056C182.032 97.2065 182.131 97.1073 182.25 97.0081C182.429 96.8494 182.627 96.7105 182.805 96.5518Z" fill="white"/>
<path d="M181.913 185.107C182.191 185.246 182.488 185.405 182.805 185.583V245.454L182.23 246.704L182.111 246.961L181.913 247.398V185.107Z" fill="white"/>
<path d="M187.666 93.4969V147.198C187.606 147.456 187.547 147.694 187.507 147.952C187.467 148.091 187.447 148.21 187.408 148.348V93.5961C187.487 93.5564 187.566 93.5365 187.666 93.4969Z" fill="white"/>
<path d="M187.408 187.904C187.487 187.944 187.586 187.984 187.666 188.023V234.9L187.408 235.476V187.904Z" fill="white"/>
<path d="M193.161 190.545V222.98L192.288 224.864V190.168C192.367 190.207 192.447 190.227 192.526 190.267C192.724 190.366 192.943 190.446 193.161 190.545Z" fill="white"/>
<path d="M193.161 100.677V112.421C193.161 112.837 193.141 113.254 193.141 113.69C193.121 114.663 193.081 115.714 192.982 116.865C192.962 117.142 192.943 117.44 192.903 117.737C192.784 119.166 192.605 120.713 192.367 122.36C192.367 122.439 192.347 122.518 192.347 122.598L192.288 123.014V95.5984C192.367 95.7571 192.427 95.9356 192.486 96.134C192.585 96.3919 192.665 96.6895 192.724 97.0069C192.962 97.9988 193.101 99.2287 193.161 100.677Z" fill="white"/>
<path d="M198.021 192.706V212.425L197.783 212.94V192.607C197.862 192.646 197.942 192.666 198.021 192.706Z" fill="white"/>
<path d="M203.079 194.887C203.238 194.966 203.377 195.026 203.516 195.065V200.481L203.437 200.64L202.643 202.385V194.708C202.802 194.768 202.941 194.827 203.079 194.887Z" fill="white"/>
</g>
<g opacity="0.3">
<path d="M192.724 97.0086H182.25C182.428 96.8499 182.627 96.711 182.805 96.5523C182.984 96.4135 183.143 96.2746 183.321 96.1357H192.486C192.585 96.3936 192.665 96.6912 192.724 97.0086Z" fill="white"/>
<path d="M193.22 101.63V101.868H177.35C177.409 101.789 177.489 101.71 177.548 101.63H193.22Z" fill="white"/>
<path d="M193.24 106.491V107.383H172.985C173.223 107.066 173.442 106.768 173.64 106.491H193.24Z" fill="white"/>
<path d="M193.161 111.987V112.245H169.435C169.514 112.145 169.573 112.066 169.613 111.987H193.161Z" fill="white"/>
<path d="M192.982 116.867C192.962 117.145 192.942 117.442 192.902 117.74H165.566C165.764 117.442 165.963 117.164 166.181 116.867H192.982Z" fill="white"/>
<path d="M192.367 122.36C192.367 122.44 192.347 122.519 192.347 122.599H162.213C162.273 122.519 162.332 122.44 162.372 122.36H192.367Z" fill="white"/>
<path d="M191.633 127.221C191.593 127.519 191.534 127.797 191.474 128.094H158.484C158.702 127.797 158.901 127.519 159.079 127.221H191.633Z" fill="white"/>
<path d="M190.661 132.718C190.641 132.797 190.621 132.877 190.601 132.976H155.27C155.33 132.896 155.389 132.797 155.449 132.718H190.661Z" fill="white"/>
<path d="M189.689 137.576C189.649 137.874 189.589 138.171 189.51 138.469H151.719C151.917 138.171 152.096 137.874 152.275 137.576H189.689Z" fill="white"/>
<path d="M188.558 143.072C188.538 143.172 188.519 143.251 188.499 143.33H148.645C148.704 143.251 148.744 143.152 148.803 143.072H188.558Z" fill="white"/>
<path d="M187.507 147.952C187.467 148.091 187.447 148.21 187.407 148.349C187.368 148.508 187.348 148.666 187.288 148.825H145.252C145.431 148.528 145.609 148.23 145.788 147.952H187.507Z" fill="white"/>
<path d="M186.276 153.446C186.237 153.526 186.237 153.605 186.217 153.684H142.316C142.375 153.605 142.415 153.526 142.455 153.446H186.276Z" fill="white"/>
<path d="M185.146 158.307C185.087 158.585 185.007 158.882 184.948 159.18H139.122C139.281 158.882 139.46 158.585 139.618 158.307H185.146Z" fill="white"/>
<path d="M183.876 163.804C183.836 163.883 183.817 163.982 183.817 164.061H136.365C136.404 163.982 136.464 163.883 136.503 163.804H183.876Z" fill="white"/>
<path d="M182.726 168.662C182.666 168.959 182.587 169.257 182.527 169.555H133.409C133.548 169.257 133.706 168.959 133.865 168.662H182.726Z" fill="white"/>
<path d="M181.476 174.177C181.456 174.256 181.436 174.336 181.416 174.415H130.889C130.909 174.356 130.949 174.296 130.989 174.217V174.177H181.476Z" fill="white"/>
<path d="M180.425 179.038C180.365 179.355 180.306 179.633 180.246 179.911H128.231C128.37 179.633 128.489 179.336 128.648 179.038H180.425Z" fill="white"/>
<path d="M181.357 184.77H126.069C126.109 184.691 126.148 184.611 126.188 184.532H181C181.119 184.611 181.238 184.691 181.357 184.77Z" fill="white"/>
<path d="M192.525 190.266H123.906C124.025 189.968 124.125 189.69 124.224 189.393H190.601C191.157 189.651 191.732 189.909 192.287 190.167C192.367 190.206 192.446 190.226 192.525 190.266Z" fill="white"/>
<path d="M203.694 195.147H122.359C122.359 195.068 122.399 194.988 122.419 194.889H203.08C203.238 194.968 203.377 195.028 203.516 195.068C203.575 195.107 203.635 195.127 203.694 195.147Z" fill="white"/>
<path d="M203.853 199.769L203.516 200.483L203.436 200.642H121.189C121.209 200.364 121.268 200.067 121.308 199.769H203.853Z" fill="white"/>
<path d="M201.314 205.263L201.215 205.501H121.169C121.129 205.422 121.129 205.342 121.129 205.263H201.314Z" fill="white"/>
<path d="M199.072 210.124L198.675 210.997H123.173C123.014 210.719 122.855 210.421 122.716 210.124H199.072Z" fill="white"/>
<path d="M196.552 215.62L196.433 215.858H126.545C126.485 215.779 126.406 215.699 126.366 215.62H196.552Z" fill="white"/>
<path d="M194.311 220.479L193.894 221.371H131.762C131.504 221.133 131.246 220.875 130.989 220.637C130.929 220.578 130.889 220.538 130.83 220.479H194.311Z" fill="white"/>
<path d="M191.772 225.975L191.653 226.233H137.396C137.277 226.153 137.178 226.074 137.079 225.975H191.772Z" fill="white"/>
<path d="M189.53 230.855L189.133 231.728H144.736C144.32 231.45 143.903 231.152 143.487 230.855H189.53Z" fill="white"/>
<path d="M187.011 236.349L186.892 236.587H151.997C151.898 236.527 151.799 236.468 151.7 236.408C151.68 236.388 151.64 236.368 151.62 236.349H187.011Z" fill="white"/>
<path d="M184.769 241.21L184.353 242.082H160.984C160.508 241.785 160.012 241.507 159.536 241.21H184.769Z" fill="white"/>
<path d="M182.23 246.706L182.111 246.964H169.692C169.533 246.884 169.375 246.805 169.216 246.706H182.23Z" fill="white"/>
<path d="M179.988 251.564L179.73 252.139C179.73 252.139 179.313 251.941 178.54 251.564H179.988Z" fill="white"/>
</g>
<path d="M173.878 241.009C175.068 239.204 175.921 237.201 176.953 235.296C177.985 233.392 178.917 231.448 179.869 229.504C181.674 225.754 183.44 221.985 185.166 218.196C186.892 214.407 188.638 210.618 190.344 206.829C192.129 202.901 194.133 199.013 195.601 194.946C195.66 194.768 195.422 194.649 195.323 194.807C193.141 198.517 191.395 202.544 189.51 206.412C187.646 210.221 185.781 214.03 183.936 217.859C182.091 221.687 180.266 225.516 178.481 229.365C177.608 231.269 176.755 233.154 175.961 235.098C175.168 237.042 174.196 238.927 173.581 240.93C173.561 241.069 173.799 241.129 173.878 241.009Z" fill="#263238"/>
<path d="M205.361 195.939C203.536 194.789 186.713 185.505 180.206 183.759C180.028 183.699 179.929 183.918 180.087 184.037C186.178 188.56 203.258 195.662 205.281 196.217C205.46 196.257 205.5 196.019 205.361 195.939Z" fill="#263238"/>
<path d="M213.931 107.74C207.84 108.772 196.87 98.0594 193.279 90.3624C193.041 89.8268 194.172 84.5102 195.243 77.9836C195.878 74.016 196.493 69.5922 196.771 65.5056C196.83 64.6724 199.568 66.3983 199.568 66.3983L204.766 68.025L221.965 73.4209C221.965 73.4209 218.89 81.8123 218.454 88.9341C218.434 89.5292 218.454 90.0846 218.513 90.6202C218.513 90.6996 218.533 90.7988 218.533 90.898C218.85 94.1117 219.822 106.729 213.931 107.74Z" fill="#F7A9A0"/>
<path d="M218.533 90.5999C218.533 90.6793 218.553 90.7785 218.553 90.8777C217.74 90.9372 216.867 90.9372 215.915 90.838C198.695 89.3105 197.981 67.2508 197.981 67.2508L204.786 68.0047L221.985 73.4006C221.985 73.4006 218.91 81.7919 218.474 88.9137C218.434 89.5089 218.454 90.0842 218.533 90.5999Z" fill="#263238"/>
<path d="M223.849 27.1411C223.849 27.1411 231.923 29.5415 234.145 37.2584C236.387 44.9753 235.435 53.3866 234.8 53.8627C234.165 54.3388 223.849 27.1411 223.849 27.1411Z" fill="#263238"/>
<path d="M190.661 40.6507C188.975 50.0142 196.85 75.5454 203.972 80.6041C214.288 87.9242 229.642 86.9323 235.475 74.8709C241.128 63.1865 230.277 30.097 222.481 25.6534C210.975 19.1267 193.141 26.804 190.661 40.6507Z" fill="#F7A9A0"/>
<path d="M217.561 54.6548C217.521 54.5953 217.442 54.7738 217.481 54.8532C218.057 56.5593 218.434 58.6025 217.045 59.6539C217.005 59.6936 217.025 59.773 217.085 59.7531C218.89 58.8803 218.374 56.1625 217.561 54.6548Z" fill="#263238"/>
<path d="M215.478 53.3071C212.641 53.942 214.109 59.5561 216.728 58.9808C219.307 58.4055 217.839 52.7914 215.478 53.3071Z" fill="#263238"/>
<path d="M228.174 51.6226C228.174 51.5432 228.333 51.6623 228.353 51.7416C228.75 53.4873 229.503 55.4314 231.229 55.61C231.289 55.61 231.309 55.7092 231.249 55.7092C229.246 55.9472 228.274 53.3485 228.174 51.6226Z" fill="#263238"/>
<path d="M229.245 49.4005C231.983 48.4483 233.669 54.0227 231.13 54.8956C228.631 55.7486 226.944 50.194 229.245 49.4005Z" fill="#263238"/>
<path d="M212.582 51.324C213.296 50.9272 213.891 50.4511 214.566 49.9948C215.32 49.4791 215.974 49.1418 216.331 48.2491C216.51 47.773 216.212 47.0787 215.756 46.8605C214.724 46.3248 213.633 46.7414 212.701 47.3366C211.689 47.9714 211.074 48.7252 210.697 49.856C210.32 50.947 211.63 51.8397 212.582 51.324Z" fill="#263238"/>
<path d="M230.693 46.0075C229.88 46.0868 229.126 46.0273 228.313 46.0075C227.4 46.0075 226.666 46.0868 225.873 45.5512C225.456 45.2536 225.317 44.5196 225.555 44.0832C226.111 43.0715 227.242 42.7937 228.353 42.7541C229.543 42.7144 230.475 42.9921 231.427 43.7261C232.34 44.4204 231.765 45.9083 230.693 46.0075Z" fill="#263238"/>
<path d="M220.14 70.6254C220.656 70.923 221.231 71.3793 221.866 71.2602C222.481 71.161 223.116 70.6849 223.631 70.3279C223.671 70.2882 223.75 70.3278 223.731 70.4072C223.453 71.2007 222.62 71.8554 221.767 71.9347C220.933 71.9942 220.378 71.4189 220.001 70.7445C219.942 70.6651 220.061 70.5857 220.14 70.6254Z" fill="#263238"/>
<path d="M220.616 64.9327C221.985 66.1824 223.631 66.6387 225.258 66.5395C225.992 66.4998 226.726 66.3412 227.42 66.0833C227.559 66.0436 227.698 65.9841 227.817 65.9246C227.936 65.8849 228.055 65.8254 228.174 65.7658C228.372 65.6865 228.432 65.4881 228.412 65.2898V65.2699C228.392 65.2104 228.372 65.1509 228.353 65.0914C228.353 65.0914 228.353 65.0914 228.353 65.0715L228.313 64.9128C227.995 63.5639 227.341 61.5602 227.341 61.5602C227.896 61.6793 230.693 62.1554 230.455 61.461C228.591 55.7478 226.527 49.3997 223.472 44.1228C223.373 43.9443 223.096 44.0633 223.175 44.2418C224.742 49.7964 227.281 55.0336 228.948 60.608C228.075 60.5088 226.627 60.2906 225.932 60.489C225.754 60.5882 227.281 64.3375 227.381 64.9525C227.381 64.9525 227.381 64.9723 227.381 65.012C225.198 65.8849 223.334 65.6468 220.755 64.7144C220.576 64.6748 220.477 64.8335 220.616 64.9327Z" fill="#263238"/>
<path d="M226.449 65.6081C226.449 65.6081 225.675 67.5125 224.207 68.5243C223.671 68.9012 223.037 69.1591 222.322 69.1392C220.835 69.1392 220.477 67.8696 220.438 66.719C220.418 65.7668 220.616 64.894 220.616 64.894C220.616 64.894 223.136 66.2628 226.449 65.6081Z" fill="#263238"/>
<path d="M224.207 68.5242C223.672 68.9011 223.037 69.159 222.323 69.1392C220.835 69.1392 220.478 67.8695 220.438 66.7189C221.965 66.4809 223.691 67.1157 224.207 68.5242Z" fill="#FF99BA"/>
<path d="M197.148 62.7693C200.223 62.6702 200.54 53.2075 200.342 49.6962C200.163 46.6015 197.981 37.2976 197.922 36.643C197.842 35.9883 212.76 40.4121 219.049 35.9486C225.337 31.4851 227.857 23.6095 226.944 20.6338C226.032 17.678 214.784 13.2145 207.126 15.4363C199.469 17.6383 192.585 30.7114 192.585 30.7114C192.585 30.7114 194.629 25.3949 194.391 25.0973C194.152 24.7998 189.967 28.4103 190.264 32.1795C190.264 32.1795 189.729 27.4977 189.332 27.5572C188.935 27.5969 186.436 32.6159 188.261 35.1551C188.261 35.1551 185.206 40.432 186.217 44.7368C187.249 49.0019 193.557 62.8884 197.148 62.7693Z" fill="#263238"/>
<path d="M223.513 32.795C221.727 34.501 219.962 36.3261 217.72 37.437C215.3 38.6471 212.443 38.9249 209.765 38.8257C207.027 38.7265 204.369 38.1512 201.79 37.1791C199.549 36.3459 197.386 35.1359 195.085 34.501C194.51 34.3423 194.192 35.1954 194.629 35.5326C198.934 38.8059 205.183 40.6309 210.539 40.5119C216.193 40.373 220.577 37.5958 223.552 32.8347C223.572 32.795 223.552 32.7553 223.513 32.795Z" fill="#263238"/>
<path d="M198.775 61.2421C198.775 61.2421 191.712 53.6442 188.181 56.2826C184.65 58.921 190.78 70.5063 195.501 71.5379C200.223 72.5893 201.274 68.2448 201.274 68.2448L198.775 61.2421Z" fill="#F7A9A0"/>
<path d="M190.026 59.5554C189.947 59.5554 189.947 59.6546 190.026 59.6745C193.339 60.5077 195.402 63.2056 196.989 66.0623C195.898 65.0307 194.529 64.5744 193.121 65.9035C193.042 65.9829 193.141 66.0821 193.22 66.0623C194.47 65.606 195.422 65.7052 196.454 66.6177C197.168 67.2525 197.723 68.1254 198.279 68.9189C198.457 69.1768 198.953 68.9586 198.795 68.6411C198.775 68.6213 198.775 68.6015 198.755 68.5816C198.279 64.5347 194.391 59.357 190.026 59.5554Z" fill="#263238"/>
<path d="M218.652 90.4421L212.403 105.499L193.815 86.1373L188.419 92.2275C188.419 92.2275 206.452 122.857 206.591 121.468L212.979 108.495L221.866 117.66L221.39 94.866L218.652 90.4421Z" fill="#EBEBEB"/>
<path d="M222.283 106.412C222.084 102.663 221.985 98.8539 221.608 95.1244C221.588 94.9855 221.39 94.926 221.35 95.0847C220.557 98.6952 221.41 113.078 221.35 116.51C221.33 116.49 221.33 116.49 221.31 116.47C220.934 116.073 213.058 108.396 212.979 108.515C211.61 110.578 206.928 120.021 206.591 120.874C203.734 116.014 192.784 98.3183 189.411 93.7159C189.312 93.577 189.114 93.6961 189.193 93.8349C191.713 98.9729 206.174 122.778 206.412 122.719C206.571 122.838 212.383 111.213 213.098 109.011C214.427 110.677 222.362 119.346 222.402 118.771C222.6 115.002 222.481 110.181 222.283 106.412Z" fill="#263238"/>
<path d="M69.2923 478.997C69.8196 471.79 70.6985 464.407 72.4563 457.376C74.0383 450.872 76.1478 444.368 80.1908 439.094C83.8822 434.172 89.1556 430.305 95.3079 429.602C101.285 428.899 106.91 431.536 111.304 435.227C116.753 439.797 120.972 445.95 125.015 451.926C129.41 458.606 133.277 465.462 136.792 472.669C136.968 472.844 136.617 473.02 136.441 472.844C133.453 466.868 129.761 460.891 125.894 455.442C122.203 450.344 118.335 445.071 113.765 440.676C109.722 436.633 104.449 432.942 98.6478 432.766C92.847 432.59 87.3978 435.93 83.7064 440.501C79.6634 445.598 77.7298 451.926 76.1478 458.079C74.5658 464.934 73.6868 471.79 73.1595 478.821C71.929 493.059 71.7532 507.473 71.4017 521.887C71.2259 529.973 71.0501 538.059 71.0501 546.145C71.0501 550.188 71.0501 554.407 70.8743 558.45C70.8743 562.493 71.05 566.36 70.3469 570.403C70.1711 571.282 68.9407 571.106 68.7649 570.403C68.0618 566.712 68.2376 562.845 68.2376 559.153C68.2376 555.286 68.0618 551.419 68.0618 547.552C68.0618 539.993 67.886 532.434 68.0618 524.876C68.0618 509.583 68.4134 494.29 69.2923 478.997Z" fill="#263238"/>
<path d="M89.8587 468.274C90.5619 464.231 91.9681 458.957 94.2533 455.793C98.472 450.168 102.867 452.629 98.6478 458.782C94.0775 465.637 93.5502 470.911 92.847 474.075C92.847 474.075 99.8782 484.094 108.14 488.84C107.788 484.973 106.734 479.172 107.437 473.547C109.019 461.243 116.402 461.946 114.644 471.789C113.238 479.524 112.535 487.961 112.886 491.477C115.347 493.411 119.742 494.993 121.851 495.872C121.324 494.465 120.796 492.707 120.269 490.598C117.281 479.524 124.663 476.184 124.839 482.336C125.015 487.434 126.949 495.344 127.652 497.981C131.695 499.387 135.035 500.266 137.144 500.969C145.581 503.957 150.855 510.461 150.855 510.461C154.722 507.122 157.886 502.903 160.171 498.332C157.535 496.047 153.492 492.883 147.867 488.84C137.32 481.457 141.011 471.965 149.273 477.766C155.25 481.985 159.996 489.719 162.105 493.762C165.093 486.731 166.5 479.172 166.851 471.789C158.589 464.055 138.023 453.157 144.175 453.157C149.8 453.157 162.105 461.243 166.675 464.407C166.5 462.297 166.324 460.012 165.972 458.078C158.238 452.981 132.749 445.071 136.792 442.785C141.187 440.324 158.941 448.41 164.214 451.047C162.984 447.18 161.402 444.016 159.468 441.379C148.746 426.965 129.234 422.043 120.796 424.68C114.82 426.614 116.577 441.907 115.171 441.379C91.968 431.887 80.8939 438.742 89.8587 468.274ZM148.921 466.692C150.679 464.582 158.589 470.735 156.304 474.075C154.019 477.239 146.636 469.328 148.921 466.692ZM107.613 453.684C109.722 455.09 106.558 462.649 103.394 460.364C100.581 458.254 105.503 452.278 107.613 453.684Z" fill="#FFC727"/>
<path d="M110.776 455.969C111.831 453.86 113.062 451.75 114.292 449.641C115.523 447.707 116.753 445.598 118.335 443.84C117.984 443.488 117.632 442.961 117.28 442.609C117.105 442.434 117.456 442.258 117.456 442.434C117.808 442.961 118.159 443.313 118.687 443.84L118.863 444.016C120.269 445.774 121.675 447.707 123.081 449.465C125.366 449.992 127.827 450.695 130.112 451.574C132.398 452.453 134.859 453.156 137.144 454.211C137.32 454.387 137.32 454.738 136.968 454.563C134.683 453.508 132.398 452.629 129.937 451.75C127.652 451.047 125.366 450.344 123.081 449.817C123.784 450.871 124.487 451.926 125.191 452.981C129.409 454.211 133.628 456.145 137.495 458.078C141.714 460.012 145.757 462.297 149.8 464.758C149.976 464.934 149.8 465.285 149.624 465.11C145.757 462.824 141.538 460.715 137.495 458.781C133.628 457.024 129.585 455.442 125.718 453.684C135.562 468.977 141.538 486.731 149.448 503.254C149.624 503.43 149.273 503.606 149.097 503.43C146.636 497.629 143.823 492.004 141.363 486.379C139.077 481.281 136.792 476.184 134.331 471.086C133.628 469.68 132.925 468.098 132.222 466.692C132.573 474.953 132.398 483.215 133.804 491.301C133.804 491.653 133.452 491.653 133.452 491.301C132.925 482.512 131.343 473.899 131.343 465.11C131.343 465.11 131.343 465.11 131.343 464.934C129.585 461.594 127.827 458.254 125.894 455.09C122.554 462.824 119.214 470.559 117.632 478.821C117.632 478.996 117.105 478.996 117.28 478.645C119.566 470.383 121.499 462.121 125.542 454.387C123.433 450.871 121.148 447.531 118.687 444.367C117.632 446.477 116.226 448.41 114.995 450.344C113.765 452.277 112.534 454.211 111.48 456.145C109.019 460.363 106.909 464.582 105.327 469.153C105.152 469.328 104.8 469.328 104.976 468.977C106.734 464.582 108.491 460.188 110.776 455.969Z" fill="#263238"/>
<path d="M33.0809 474.601C39.4091 468.273 46.7919 460.011 56.4599 460.011C65.9521 460.011 72.8075 467.569 76.8505 475.48C81.0693 483.741 82.4756 492.882 83.7061 502.023C85.1123 512.745 85.8154 523.644 86.1669 534.542C86.3427 540.519 86.3427 546.671 86.1669 552.648C85.9911 558.8 85.8154 564.953 84.7607 570.929C84.5849 571.984 83.0029 571.984 83.0029 570.929C82.6513 565.831 83.0029 560.734 83.0029 555.636C83.0029 550.538 83.0029 545.617 82.8271 540.519C82.4756 530.323 81.7725 520.304 80.542 510.109C79.4873 501.32 78.6083 492.179 75.9716 483.741C73.5107 476.007 69.1161 467.218 61.3818 463.878C50.8348 459.308 40.4637 467.745 33.4324 474.776C33.2566 475.128 32.9052 474.952 33.0809 474.601Z" fill="#263238"/>
<path d="M0.737157 488.839C0.737157 490.069 0.912896 491.476 0.912896 492.706C3.7254 490.597 7.41686 488.839 11.2841 488.487C20.2489 487.608 19.7216 494.288 13.745 494.64C7.94425 494.991 4.25283 495.87 1.44033 497.101C2.84658 508.878 6.18643 518.546 6.71378 518.546C7.24112 518.722 18.1396 517.843 30.4443 515.558C28.1592 510.812 23.0615 504.483 25.6982 503.956C28.3349 503.429 31.1474 509.054 32.5536 515.03C38.5302 513.8 44.5069 512.218 49.7803 510.284C45.9131 506.944 39.7607 502.55 42.0459 500.792C44.331 499.034 49.2529 505.011 52.0654 509.23C54.878 507.999 57.5147 506.593 59.4483 505.011C54.1748 497.276 41.167 495.694 42.9248 489.894C44.6826 484.093 56.8115 492.003 62.2608 502.55C68.5889 495.87 70.5225 486.554 69.8194 478.468C64.1943 477.765 53.4717 478.995 54.3506 474.952C55.0537 471.085 62.7881 471.788 69.292 474.073C68.5889 470.382 67.1827 467.393 65.6007 465.284C59.7999 457.725 41.8701 467.394 41.8701 467.394C41.8701 467.394 43.8036 449.464 36.9482 446.3C33.081 444.542 26.0498 444.542 19.0185 448.585C22.8857 448.936 27.6318 450.167 29.5654 452.804C32.0263 456.319 28.1591 458.077 25.6982 456.495C23.9404 455.44 20.7762 451.749 14.9754 451.397C12.6903 453.331 10.581 455.616 8.4716 458.604C7.76847 459.483 7.24106 460.538 6.53793 461.593C12.1629 459.308 19.5458 458.077 27.456 461.944C35.1904 465.811 30.7958 473.897 24.1161 470.733C17.4364 467.569 11.1083 464.581 4.07705 466.339C1.44033 472.315 0.561376 479.347 0.737157 486.378C3.37388 484.444 7.24108 482.159 12.163 480.929C19.8974 478.819 22.1826 483.565 13.745 484.444C8.4716 485.147 3.90123 487.081 0.737157 488.839ZM10.2294 476.534C9.70207 474.073 15.1513 473.37 16.0302 475.304C16.9091 477.062 10.7568 478.995 10.2294 476.534ZM56.9873 490.245C57.5147 488.839 61.2061 490.421 60.8545 492.179C60.503 494.464 56.46 491.651 56.9873 490.245ZM31.1474 499.034C33.7841 497.98 38.0029 504.659 35.0146 506.065C32.2021 507.648 29.038 499.913 31.1474 499.034Z" fill="#FFC727"/>
<path d="M7.76844 517.139C11.8114 510.46 15.8544 503.604 20.0732 497.1C22.0068 494.112 24.1161 490.948 26.2255 488.135C25.874 488.135 25.5224 487.96 25.3466 487.96C24.8193 487.784 24.2919 487.784 23.7645 487.608C22.5341 487.432 21.3036 487.256 20.0732 487.081C18.8427 486.905 17.788 486.905 16.5575 486.905C15.3271 486.905 13.9208 486.905 12.8662 487.081C12.6904 487.081 12.6904 486.905 12.8662 486.905C14.0966 486.905 15.327 486.729 16.7333 486.729C17.9637 486.729 19.1943 486.729 20.4247 486.729C21.6552 486.729 22.7098 486.905 23.7645 487.081C24.4677 487.256 24.9951 487.257 25.6982 487.432C26.0498 487.432 26.4013 487.608 26.7528 487.608C28.8622 484.62 31.1474 481.631 33.6084 478.819C26.5771 475.655 19.3701 472.842 11.6357 471.788C11.4599 471.788 11.6357 471.612 11.6357 471.612C19.3701 472.842 27.1045 474.776 33.96 478.467C35.1904 476.885 36.5966 475.303 37.8271 473.721C39.2333 471.963 40.8154 470.206 42.2216 468.448C42.2216 468.272 42.5732 468.448 42.3975 468.624C40.6396 470.557 38.8818 472.667 37.2998 474.952C40.288 476.885 42.9248 479.171 45.5615 481.456C48.1982 483.741 50.835 486.202 53.4717 488.839C53.6475 489.014 53.4717 489.014 53.296 489.014C50.835 486.553 48.1983 484.092 45.3858 481.807C42.749 479.522 39.7607 477.413 37.124 475.303C36.4209 476.182 35.8935 476.885 35.1903 477.764C34.8388 478.116 34.4872 478.643 34.3114 478.995C34.3114 478.995 34.3114 478.995 34.3114 479.171C33.2567 480.577 32.2021 481.983 31.1474 483.214C32.3779 484.971 33.4325 486.905 34.3114 488.839C35.1903 490.772 36.0693 492.706 36.7724 494.639C38.3545 498.682 39.2334 502.901 40.1123 507.296C40.1123 507.471 39.9365 507.471 39.9365 507.296C39.0576 503.077 37.8271 499.034 36.2451 494.991C35.542 492.881 34.4873 490.948 33.6084 489.014C32.7295 487.256 31.6748 485.499 30.9717 483.565C30.0927 484.796 29.2138 486.026 28.3349 487.256C28.1591 487.608 27.8075 487.96 27.6318 488.311V488.487C24.8192 492.354 22.1825 496.221 19.7216 500.264C19.8974 500.44 19.8974 500.792 20.0732 501.143C20.2489 501.671 20.4247 502.198 20.6005 502.55C20.952 503.604 21.1279 504.483 21.3037 505.538C21.4794 506.417 21.6552 507.471 21.6552 508.35C21.831 509.405 21.6552 510.635 21.831 511.69C21.831 511.866 21.6552 511.866 21.6552 511.69C21.831 510.811 21.4794 509.581 21.4794 508.702C21.3036 507.647 21.1279 506.592 20.9521 505.538C20.7763 504.659 20.4247 503.78 20.2489 502.725C20.0731 502.198 19.8974 501.846 19.7216 501.319C19.7216 501.143 19.5458 500.792 19.37 500.616C18.1395 502.55 16.909 504.307 15.8544 506.241C13.5692 509.932 11.2841 513.8 8.99894 517.491C7.94425 517.491 7.59266 517.315 7.76844 517.139Z" fill="#263238"/>
<path d="M69.8196 568.82C69.9954 564.953 70.5228 561.086 70.8744 557.395C71.226 553.527 71.7532 549.836 72.1048 545.969C72.8079 538.586 73.3353 531.203 75.0931 523.996C76.4993 517.844 79.3119 511.867 84.058 507.473C86.519 505.187 89.5073 503.43 92.8471 503.254C96.187 503.078 99.351 504.309 102.164 506.066C105.328 508.176 107.789 511.34 110.074 514.328C112.359 517.492 114.468 520.832 116.226 524.348C116.226 524.523 116.05 524.523 116.05 524.523C112.71 518.723 108.14 513.801 102.867 509.758C100.406 507.824 97.5932 506.418 94.4291 506.242C91.265 506.066 88.6283 507.473 86.3432 509.406C81.9486 513.273 79.3119 518.898 77.7298 524.523C75.972 531.203 75.2689 538.059 74.39 544.914C73.8627 548.957 73.3353 553 72.808 557.043C72.2806 561.086 71.929 565.129 71.0501 569.172C70.8744 569.875 69.8196 569.699 69.8196 568.82Z" fill="#263238"/>
<path d="M88.4524 539.114C89.5071 540.696 90.9133 542.102 92.6711 543.333C91.968 539.641 91.2649 532.962 93.1985 529.446C96.1868 523.997 99.5267 526.634 97.7688 531.38C95.3079 538.235 94.9563 542.805 94.9563 544.915C98.6477 547.376 103.042 549.309 107.613 550.891C107.261 549.134 106.909 546.848 107.261 544.388C107.788 538.587 112.359 538.587 111.128 544.739C110.601 547.376 110.425 549.837 110.601 551.946C120.796 555.11 130.288 556.341 130.288 556.341C134.156 551.243 136.792 546.497 138.374 541.751C133.628 540.52 123.96 540.345 124.136 536.829C124.488 532.259 133.804 535.774 139.253 539.114C140.66 534.72 141.011 530.677 140.835 526.809C138.726 526.106 134.683 525.227 127.652 524.7C117.808 523.821 118.335 518.372 125.367 518.372C130.64 518.548 137.144 521.712 140.308 523.294C138.199 509.934 128.179 501.497 119.917 501.145C106.206 500.618 111.128 517.669 111.128 517.669C111.128 517.669 101.812 511.165 93.0227 511.341C84.761 511.692 79.136 526.106 88.4524 539.114ZM125.191 514.505C124.839 512.571 130.992 512.044 131.343 514.505C131.519 517.317 125.367 516.438 125.191 514.505ZM134.859 534.544C134.683 533.313 137.32 533.138 138.023 534.72C138.374 535.598 135.035 535.774 134.859 534.544ZM101.988 535.774C104.097 536.126 105.152 543.509 101.636 543.333C98.9993 543.157 100.23 535.423 101.988 535.774Z" fill="#FFC727"/>
<path d="M104.976 543.861C105.327 542.982 105.679 541.927 105.855 541.049C105.503 541.927 105.327 542.982 105.152 543.861C105.152 544.213 104.8 544.037 104.976 543.861Z" fill="#263238"/>
<path d="M108.491 532.083C109.194 530.15 109.898 528.392 110.601 526.458C110.952 525.403 111.48 524.525 111.831 523.47C112.183 522.591 112.534 521.712 113.062 521.009C112.71 520.306 112.183 519.427 112.007 518.548C112.007 518.548 112.007 518.372 112.183 518.548C113.237 519.778 114.116 521.361 114.82 522.767C115.171 523.47 115.523 523.997 115.874 524.7C116.577 524.7 117.456 524.876 118.159 525.052C119.038 525.228 119.741 525.403 120.62 525.579C121.499 525.755 122.202 525.931 123.081 526.107C123.96 526.282 124.663 526.634 125.542 526.634C125.718 526.634 125.718 526.986 125.542 526.81C124.663 526.458 123.784 526.282 122.905 526.107C122.202 525.931 121.323 525.755 120.62 525.755C119.741 525.579 119.038 525.579 118.159 525.404C117.632 525.404 116.929 525.228 116.401 525.228C116.753 525.755 117.105 526.282 117.456 526.986C117.456 527.161 117.632 527.161 117.632 527.337C118.335 527.337 119.038 527.513 119.566 527.513C120.269 527.689 120.972 527.689 121.675 527.864C123.081 528.216 124.487 528.568 125.894 528.919C128.882 529.798 131.87 530.677 134.683 531.732C134.859 531.732 134.683 532.083 134.507 531.907C131.694 530.853 128.706 530.15 125.718 529.446C124.312 529.095 122.905 528.743 121.499 528.568C120.796 528.392 120.093 528.216 119.39 528.04C118.862 527.864 118.335 527.864 117.808 527.689C119.39 530.501 120.796 533.314 122.027 536.126C124.839 542.454 127.3 548.958 129.761 555.286C129.761 555.462 129.585 555.638 129.585 555.462C127.3 548.958 124.487 542.806 121.499 536.654C120.972 535.599 120.444 534.368 119.917 533.314C119.917 533.489 119.741 533.841 119.741 534.017C119.566 534.72 119.39 535.599 119.39 536.302C119.214 537.884 118.862 539.29 118.687 540.872C118.159 544.036 117.456 547.2 117.632 550.364C117.632 550.54 117.28 550.54 117.28 550.364C117.456 548.782 117.456 547.2 117.632 545.794C117.808 544.212 117.808 542.63 117.984 541.048C118.159 539.466 118.335 538.06 118.687 536.478C118.862 535.775 118.862 534.896 119.038 534.193C119.214 533.665 119.214 532.962 119.39 532.611C118.511 531.028 117.808 529.446 116.929 527.864C116.226 526.282 115.347 524.876 114.644 523.294C114.292 522.591 113.941 522.064 113.589 521.36C113.413 522.239 113.062 522.943 112.71 523.646C112.359 524.525 112.007 525.404 111.655 526.282C110.952 528.216 110.073 530.15 109.37 532.083C108.316 534.896 107.261 537.708 106.382 540.521C106.909 537.708 107.612 534.896 108.491 532.083Z" fill="#263238"/>
<path d="M105.855 541.048C105.855 540.872 106.031 540.521 106.031 540.345C106.031 540.697 105.855 540.872 105.855 541.048Z" fill="#263238"/>
<path d="M46.9679 561.438L47.8468 581.828L50.3078 634.387H104.449L107.085 581.828L107.964 561.438H46.9679Z" fill="#37474F"/>
<path d="M46.9679 561.438L47.8468 581.828H107.085L107.964 561.438H46.9679Z" fill="#263238"/>
<path d="M43.0312 569.588H111.762V553.065H43.0312V569.588Z" fill="#37474F"/>
<path d="M100.054 634.386H90.5618V643H100.054V634.386Z" fill="#37474F"/>
<path d="M100.054 634.386H90.5618V638.781H100.054V634.386Z" fill="#263238"/>
<path d="M64.1945 634.386H54.7023V643H64.1945V634.386Z" fill="#37474F"/>
<path d="M64.1945 634.386H54.7023V638.781H64.1945V634.386Z" fill="#263238"/>
</svg>
